<?xml version="1.0" encoding="UTF-8" standalone="no"?>
<!DOCTYPE svg PUBLIC "-//W3C//DTD SVG 1.1//EN"
 "http://www.w3.org/Graphics/SVG/1.1/DTD/svg11.dtd">
<!-- Generated by graphviz version 12.2.1 (20241206.2353)
 -->
<!-- Title: ServiceGraphV2 Pages: 1 -->
<svg width="1928pt" height="1196pt"
 viewBox="0.00 0.00 1928.36 1196.00" xmlns="http://www.w3.org/2000/svg" xmlns:xlink="http://www.w3.org/1999/xlink">
<g id="graph0" class="graph" transform="scale(1 1) rotate(0) translate(4 1192)">
<title>ServiceGraphV2</title>
<polygon fill="white" stroke="none" points="-4,4 -4,-1192 1924.36,-1192 1924.36,4 -4,4"/>
<!-- Catalog&#45;API -->
<g id="node1" class="node">
<title>Catalog&#45;API</title>
<ellipse fill="none" stroke="black" cx="537" cy="-522" rx="57.49" ry="18"/>
<text text-anchor="middle" x="537" y="-516.95" font-family="Times,serif" font-size="14.00">Catalog&#45;API</text>
</g>
<!-- Product&#45;Resolution&#45;Service -->
<g id="node2" class="node">
<title>Product&#45;Resolution&#45;Service</title>
<ellipse fill="none" stroke="black" cx="525" cy="-450" rx="113.28" ry="18"/>
<text text-anchor="middle" x="525" y="-444.95" font-family="Times,serif" font-size="14.00">Product&#45;Resolution&#45;Service</text>
</g>
<!-- Catalog&#45;API&#45;&gt;Product&#45;Resolution&#45;Service -->
<g id="edge1" class="edge">
<title>Catalog&#45;API&#45;&gt;Product&#45;Resolution&#45;Service</title>
<path fill="none" stroke="black" d="M534.03,-503.7C532.77,-496.32 531.26,-487.52 529.84,-479.25"/>
<polygon fill="black" stroke="black" points="533.33,-478.86 528.19,-469.6 526.43,-480.04 533.33,-478.86"/>
</g>
<!-- Product&#45;Configuration&#45;Service -->
<g id="node18" class="node">
<title>Product&#45;Configuration&#45;Service</title>
<ellipse fill="none" stroke="black" cx="525" cy="-378" rx="125.05" ry="18"/>
<text text-anchor="middle" x="525" y="-372.95" font-family="Times,serif" font-size="14.00">Product&#45;Configuration&#45;Service</text>
</g>
<!-- Product&#45;Resolution&#45;Service&#45;&gt;Product&#45;Configuration&#45;Service -->
<g id="edge9" class="edge">
<title>Product&#45;Resolution&#45;Service&#45;&gt;Product&#45;Configuration&#45;Service</title>
<path fill="none" stroke="black" d="M525,-431.7C525,-424.41 525,-415.73 525,-407.54"/>
<polygon fill="black" stroke="black" points="528.5,-407.62 525,-397.62 521.5,-407.62 528.5,-407.62"/>
</g>
<!-- Cart&#45;API -->
<g id="node3" class="node">
<title>Cart&#45;API</title>
<ellipse fill="none" stroke="black" cx="139" cy="-594" rx="44.7" ry="18"/>
<text text-anchor="middle" x="139" y="-588.95" font-family="Times,serif" font-size="14.00">Cart&#45;API</text>
</g>
<!-- Cart&#45;Orchestration&#45;Service -->
<g id="node4" class="node">
<title>Cart&#45;Orchestration&#45;Service</title>
<ellipse fill="none" stroke="black" cx="139" cy="-522" rx="110.72" ry="18"/>
<text text-anchor="middle" x="139" y="-516.95" font-family="Times,serif" font-size="14.00">Cart&#45;Orchestration&#45;Service</text>
</g>
<!-- Cart&#45;API&#45;&gt;Cart&#45;Orchestration&#45;Service -->
<g id="edge2" class="edge">
<title>Cart&#45;API&#45;&gt;Cart&#45;Orchestration&#45;Service</title>
<path fill="none" stroke="black" d="M139,-575.7C139,-568.41 139,-559.73 139,-551.54"/>
<polygon fill="black" stroke="black" points="142.5,-551.62 139,-541.62 135.5,-551.62 142.5,-551.62"/>
</g>
<!-- Cart&#45;Management&#45;Service -->
<g id="node32" class="node">
<title>Cart&#45;Management&#45;Service</title>
<ellipse fill="none" stroke="black" cx="178" cy="-450" rx="109.7" ry="18"/>
<text text-anchor="middle" x="178" y="-444.95" font-family="Times,serif" font-size="14.00">Cart&#45;Management&#45;Service</text>
</g>
<!-- Cart&#45;Orchestration&#45;Service&#45;&gt;Cart&#45;Management&#45;Service -->
<g id="edge23" class="edge">
<title>Cart&#45;Orchestration&#45;Service&#45;&gt;Cart&#45;Management&#45;Service</title>
<path fill="none" stroke="black" d="M148.64,-503.7C152.94,-495.98 158.1,-486.71 162.89,-478.11"/>
<polygon fill="black" stroke="black" points="165.92,-479.87 167.73,-469.43 159.81,-476.46 165.92,-479.87"/>
</g>
<!-- Checkout&#45;API -->
<g id="node5" class="node">
<title>Checkout&#45;API</title>
<ellipse fill="none" stroke="black" cx="1531" cy="-1170" rx="64.15" ry="18"/>
<text text-anchor="middle" x="1531" y="-1164.95" font-family="Times,serif" font-size="14.00">Checkout&#45;API</text>
</g>
<!-- Checkout&#45;Orchestration&#45;Service -->
<g id="node6" class="node">
<title>Checkout&#45;Orchestration&#45;Service</title>
<ellipse fill="none" stroke="black" cx="1531" cy="-1098" rx="130.17" ry="18"/>
<text text-anchor="middle" x="1531" y="-1092.95" font-family="Times,serif" font-size="14.00">Checkout&#45;Orchestration&#45;Service</text>
</g>
<!-- Checkout&#45;API&#45;&gt;Checkout&#45;Orchestration&#45;Service -->
<g id="edge3" class="edge">
<title>Checkout&#45;API&#45;&gt;Checkout&#45;Orchestration&#45;Service</title>
<path fill="none" stroke="black" d="M1531,-1151.7C1531,-1144.41 1531,-1135.73 1531,-1127.54"/>
<polygon fill="black" stroke="black" points="1534.5,-1127.62 1531,-1117.62 1527.5,-1127.62 1534.5,-1127.62"/>
</g>
<!-- Checkout&#45;Validation&#45;Service -->
<g id="node35" class="node">
<title>Checkout&#45;Validation&#45;Service</title>
<ellipse fill="none" stroke="black" cx="1531" cy="-1026" rx="117.89" ry="18"/>
<text text-anchor="middle" x="1531" y="-1020.95" font-family="Times,serif" font-size="14.00">Checkout&#45;Validation&#45;Service</text>
</g>
<!-- Checkout&#45;Orchestration&#45;Service&#45;&gt;Checkout&#45;Validation&#45;Service -->
<g id="edge28" class="edge">
<title>Checkout&#45;Orchestration&#45;Service&#45;&gt;Checkout&#45;Validation&#45;Service</title>
<path fill="none" stroke="black" d="M1531,-1079.7C1531,-1072.41 1531,-1063.73 1531,-1055.54"/>
<polygon fill="black" stroke="black" points="1534.5,-1055.62 1531,-1045.62 1527.5,-1055.62 1534.5,-1055.62"/>
</g>
<!-- Order&#45;API -->
<g id="node7" class="node">
<title>Order&#45;API</title>
<ellipse fill="none" stroke="black" cx="1575" cy="-738" rx="50.33" ry="18"/>
<text text-anchor="middle" x="1575" y="-732.95" font-family="Times,serif" font-size="14.00">Order&#45;API</text>
</g>
<!-- Order&#45;History&#45;Service -->
<g id="node8" class="node">
<title>Order&#45;History&#45;Service</title>
<ellipse fill="none" stroke="black" cx="1652" cy="-666" rx="93.83" ry="18"/>
<text text-anchor="middle" x="1652" y="-660.95" font-family="Times,serif" font-size="14.00">Order&#45;History&#45;Service</text>
</g>
<!-- Order&#45;API&#45;&gt;Order&#45;History&#45;Service -->
<g id="edge4" class="edge">
<title>Order&#45;API&#45;&gt;Order&#45;History&#45;Service</title>
<path fill="none" stroke="black" d="M1592.86,-720.76C1602.3,-712.18 1614.09,-701.46 1624.66,-691.86"/>
<polygon fill="black" stroke="black" points="1627,-694.46 1632.04,-685.14 1622.29,-689.28 1627,-694.46"/>
</g>
<!-- Order&#45;Status&#45;Service -->
<g id="node49" class="node">
<title>Order&#45;Status&#45;Service</title>
<ellipse fill="none" stroke="black" cx="1660" cy="-594" rx="88.71" ry="18"/>
<text text-anchor="middle" x="1660" y="-588.95" font-family="Times,serif" font-size="14.00">Order&#45;Status&#45;Service</text>
</g>
<!-- Order&#45;History&#45;Service&#45;&gt;Order&#45;Status&#45;Service -->
<g id="edge43" class="edge">
<title>Order&#45;History&#45;Service&#45;&gt;Order&#45;Status&#45;Service</title>
<path fill="none" stroke="black" d="M1653.98,-647.7C1654.81,-640.41 1655.8,-631.73 1656.74,-623.54"/>
<polygon fill="black" stroke="black" points="1660.22,-623.94 1657.87,-613.61 1653.26,-623.15 1660.22,-623.94"/>
</g>
<!-- Profile&#45;API -->
<g id="node9" class="node">
<title>Profile&#45;API</title>
<ellipse fill="none" stroke="black" cx="1751" cy="-1026" rx="53.91" ry="18"/>
<text text-anchor="middle" x="1751" y="-1020.95" font-family="Times,serif" font-size="14.00">Profile&#45;API</text>
</g>
<!-- Profile&#45;Management&#45;Service -->
<g id="node10" class="node">
<title>Profile&#45;Management&#45;Service</title>
<ellipse fill="none" stroke="black" cx="1751" cy="-954" rx="118.91" ry="18"/>
<text text-anchor="middle" x="1751" y="-948.95" font-family="Times,serif" font-size="14.00">Profile&#45;Management&#45;Service</text>
</g>
<!-- Profile&#45;API&#45;&gt;Profile&#45;Management&#45;Service -->
<g id="edge5" class="edge">
<title>Profile&#45;API&#45;&gt;Profile&#45;Management&#45;Service</title>
<path fill="none" stroke="black" d="M1751,-1007.7C1751,-1000.41 1751,-991.73 1751,-983.54"/>
<polygon fill="black" stroke="black" points="1754.5,-983.62 1751,-973.62 1747.5,-983.62 1754.5,-983.62"/>
</g>
<!-- Address&#45;Processing&#45;Service -->
<g id="node50" class="node">
<title>Address&#45;Processing&#45;Service</title>
<ellipse fill="none" stroke="black" cx="1751" cy="-882" rx="114.82" ry="18"/>
<text text-anchor="middle" x="1751" y="-876.95" font-family="Times,serif" font-size="14.00">Address&#45;Processing&#45;Service</text>
</g>
<!-- Profile&#45;Management&#45;Service&#45;&gt;Address&#45;Processing&#45;Service -->
<g id="edge45" class="edge">
<title>Profile&#45;Management&#45;Service&#45;&gt;Address&#45;Processing&#45;Service</title>
<path fill="none" stroke="black" d="M1751,-935.7C1751,-928.41 1751,-919.73 1751,-911.54"/>
<polygon fill="black" stroke="black" points="1754.5,-911.62 1751,-901.62 1747.5,-911.62 1754.5,-911.62"/>
</g>
<!-- Seller&#45;API -->
<g id="node11" class="node">
<title>Seller&#45;API</title>
<ellipse fill="none" stroke="black" cx="923" cy="-738" rx="50.33" ry="18"/>
<text text-anchor="middle" x="923" y="-732.95" font-family="Times,serif" font-size="14.00">Seller&#45;API</text>
</g>
<!-- Seller&#45;Portal&#45;Service -->
<g id="node12" class="node">
<title>Seller&#45;Portal&#45;Service</title>
<ellipse fill="none" stroke="black" cx="923" cy="-666" rx="88.2" ry="18"/>
<text text-anchor="middle" x="923" y="-660.95" font-family="Times,serif" font-size="14.00">Seller&#45;Portal&#45;Service</text>
</g>
<!-- Seller&#45;API&#45;&gt;Seller&#45;Portal&#45;Service -->
<g id="edge6" class="edge">
<title>Seller&#45;API&#45;&gt;Seller&#45;Portal&#45;Service</title>
<path fill="none" stroke="black" d="M923,-719.7C923,-712.41 923,-703.73 923,-695.54"/>
<polygon fill="black" stroke="black" points="926.5,-695.62 923,-685.62 919.5,-695.62 926.5,-695.62"/>
</g>
<!-- Review&#45;Processing&#45;Service -->
<g id="node14" class="node">
<title>Review&#45;Processing&#45;Service</title>
<ellipse fill="none" stroke="black" cx="613" cy="-594" rx="112.77" ry="18"/>
<text text-anchor="middle" x="613" y="-588.95" font-family="Times,serif" font-size="14.00">Review&#45;Processing&#45;Service</text>
</g>
<!-- Seller&#45;Portal&#45;Service&#45;&gt;Review&#45;Processing&#45;Service -->
<g id="edge61" class="edge">
<title>Seller&#45;Portal&#45;Service&#45;&gt;Review&#45;Processing&#45;Service</title>
<path fill="none" stroke="black" d="M865.42,-652C815.21,-640.66 742.07,-624.14 687.43,-611.81"/>
<polygon fill="black" stroke="black" points="688.41,-608.44 677.89,-609.65 686.87,-615.27 688.41,-608.44"/>
</g>
<!-- Listing&#45;Processing&#45;Service -->
<g id="node52" class="node">
<title>Listing&#45;Processing&#45;Service</title>
<ellipse fill="none" stroke="black" cx="854" cy="-594" rx="110.72" ry="18"/>
<text text-anchor="middle" x="854" y="-588.95" font-family="Times,serif" font-size="14.00">Listing&#45;Processing&#45;Service</text>
</g>
<!-- Seller&#45;Portal&#45;Service&#45;&gt;Listing&#45;Processing&#45;Service -->
<g id="edge50" class="edge">
<title>Seller&#45;Portal&#45;Service&#45;&gt;Listing&#45;Processing&#45;Service</title>
<path fill="none" stroke="black" d="M906.3,-648.05C898.11,-639.75 888.09,-629.58 879.02,-620.38"/>
<polygon fill="black" stroke="black" points="881.6,-618.02 872.09,-613.35 876.62,-622.93 881.6,-618.02"/>
</g>
<!-- Seller&#45;Order&#45;Management&#45;Service -->
<g id="node54" class="node">
<title>Seller&#45;Order&#45;Management&#45;Service</title>
<ellipse fill="none" stroke="black" cx="1161" cy="-594" rx="139.89" ry="18"/>
<text text-anchor="middle" x="1161" y="-588.95" font-family="Times,serif" font-size="14.00">Seller&#45;Order&#45;Management&#45;Service</text>
</g>
<!-- Seller&#45;Portal&#45;Service&#45;&gt;Seller&#45;Order&#45;Management&#45;Service -->
<g id="edge52" class="edge">
<title>Seller&#45;Portal&#45;Service&#45;&gt;Seller&#45;Order&#45;Management&#45;Service</title>
<path fill="none" stroke="black" d="M971.74,-650.67C1007.46,-640.16 1056.35,-625.78 1095.49,-614.27"/>
<polygon fill="black" stroke="black" points="1096.45,-617.63 1105.06,-611.45 1094.48,-610.92 1096.45,-617.63"/>
</g>
<!-- Seller&#45;Inventory&#45;Service -->
<g id="node55" class="node">
<title>Seller&#45;Inventory&#45;Service</title>
<ellipse fill="none" stroke="black" cx="1074" cy="-306" rx="102.02" ry="18"/>
<text text-anchor="middle" x="1074" y="-300.95" font-family="Times,serif" font-size="14.00">Seller&#45;Inventory&#45;Service</text>
</g>
<!-- Seller&#45;Portal&#45;Service&#45;&gt;Seller&#45;Inventory&#45;Service -->
<g id="edge53" class="edge">
<title>Seller&#45;Portal&#45;Service&#45;&gt;Seller&#45;Inventory&#45;Service</title>
<path fill="none" stroke="black" d="M944.03,-648.18C954.57,-638.65 966.63,-625.87 974,-612 992.97,-576.28 993,-563.45 993,-523 993,-523 993,-523 993,-449 993,-403.36 1024.97,-359.02 1048.74,-332.36"/>
<polygon fill="black" stroke="black" points="1051.19,-334.86 1055.4,-325.14 1046.05,-330.12 1051.19,-334.86"/>
</g>
<!-- Review&#45;API -->
<g id="node13" class="node">
<title>Review&#45;API</title>
<ellipse fill="none" stroke="black" cx="613" cy="-666" rx="56.98" ry="18"/>
<text text-anchor="middle" x="613" y="-660.95" font-family="Times,serif" font-size="14.00">Review&#45;API</text>
</g>
<!-- Review&#45;API&#45;&gt;Review&#45;Processing&#45;Service -->
<g id="edge7" class="edge">
<title>Review&#45;API&#45;&gt;Review&#45;Processing&#45;Service</title>
<path fill="none" stroke="black" d="M613,-647.7C613,-640.41 613,-631.73 613,-623.54"/>
<polygon fill="black" stroke="black" points="616.5,-623.62 613,-613.62 609.5,-623.62 616.5,-623.62"/>
</g>
<!-- Search&#45;Results&#45;Service -->
<g id="node34" class="node">
<title>Search&#45;Results&#45;Service</title>
<ellipse fill="none" stroke="black" cx="365" cy="-522" rx="96.9" ry="18"/>
<text text-anchor="middle" x="365" y="-516.95" font-family="Times,serif" font-size="14.00">Search&#45;Results&#45;Service</text>
</g>
<!-- Review&#45;Processing&#45;Service&#45;&gt;Search&#45;Results&#45;Service -->
<g id="edge64" class="edge">
<title>Review&#45;Processing&#45;Service&#45;&gt;Search&#45;Results&#45;Service</title>
<path fill="none" stroke="black" d="M559.19,-577.81C520.43,-566.87 468.03,-552.08 427.44,-540.62"/>
<polygon fill="black" stroke="black" points="428.62,-537.32 418.04,-537.97 426.72,-544.06 428.62,-537.32"/>
</g>
<!-- Review&#45;Assembly&#45;Service -->
<g id="node56" class="node">
<title>Review&#45;Assembly&#45;Service</title>
<ellipse fill="none" stroke="black" cx="766" cy="-450" rx="110.21" ry="18"/>
<text text-anchor="middle" x="766" y="-444.95" font-family="Times,serif" font-size="14.00">Review&#45;Assembly&#45;Service</text>
</g>
<!-- Review&#45;Processing&#45;Service&#45;&gt;Review&#45;Assembly&#45;Service -->
<g id="edge57" class="edge">
<title>Review&#45;Processing&#45;Service&#45;&gt;Review&#45;Assembly&#45;Service</title>
<path fill="none" stroke="black" d="M614.17,-575.82C616.36,-556.18 622.71,-524.15 641,-504 655.11,-488.47 674.52,-477.33 693.84,-469.41"/>
<polygon fill="black" stroke="black" points="695.01,-472.7 703.11,-465.87 692.52,-466.16 695.01,-472.7"/>
</g>
<!-- Search&#45;API -->
<g id="node15" class="node">
<title>Search&#45;API</title>
<ellipse fill="none" stroke="black" cx="365" cy="-738" rx="53.91" ry="18"/>
<text text-anchor="middle" x="365" y="-732.95" font-family="Times,serif" font-size="14.00">Search&#45;API</text>
</g>
<!-- Search&#45;Orchestration&#45;Service -->
<g id="node16" class="node">
<title>Search&#45;Orchestration&#45;Service</title>
<ellipse fill="none" stroke="black" cx="365" cy="-666" rx="119.93" ry="18"/>
<text text-anchor="middle" x="365" y="-660.95" font-family="Times,serif" font-size="14.00">Search&#45;Orchestration&#45;Service</text>
</g>
<!-- Search&#45;API&#45;&gt;Search&#45;Orchestration&#45;Service -->
<g id="edge8" class="edge">
<title>Search&#45;API&#45;&gt;Search&#45;Orchestration&#45;Service</title>
<path fill="none" stroke="black" d="M365,-719.7C365,-712.41 365,-703.73 365,-695.54"/>
<polygon fill="black" stroke="black" points="368.5,-695.62 365,-685.62 361.5,-695.62 368.5,-695.62"/>
</g>
<!-- Search&#45;Processing&#45;Service -->
<g id="node33" class="node">
<title>Search&#45;Processing&#45;Service</title>
<ellipse fill="none" stroke="black" cx="365" cy="-594" rx="109.7" ry="18"/>
<text text-anchor="middle" x="365" y="-588.95" font-family="Times,serif" font-size="14.00">Search&#45;Processing&#45;Service</text>
</g>
<!-- Search&#45;Orchestration&#45;Service&#45;&gt;Search&#45;Processing&#45;Service -->
<g id="edge25" class="edge">
<title>Search&#45;Orchestration&#45;Service&#45;&gt;Search&#45;Processing&#45;Service</title>
<path fill="none" stroke="black" d="M365,-647.7C365,-640.41 365,-631.73 365,-623.54"/>
<polygon fill="black" stroke="black" points="368.5,-623.62 365,-613.62 361.5,-623.62 368.5,-623.62"/>
</g>
<!-- Frontend -->
<g id="node17" class="node">
<title>Frontend</title>
<ellipse fill="none" stroke="black" cx="1657" cy="-1170" rx="44.19" ry="18"/>
<text text-anchor="middle" x="1657" y="-1164.95" font-family="Times,serif" font-size="14.00">Frontend</text>
</g>
<!-- Product&#45;Metadata&#45;Aggregator -->
<g id="node19" class="node">
<title>Product&#45;Metadata&#45;Aggregator</title>
<ellipse fill="none" stroke="black" cx="794" cy="-306" rx="122.49" ry="18"/>
<text text-anchor="middle" x="794" y="-300.95" font-family="Times,serif" font-size="14.00">Product&#45;Metadata&#45;Aggregator</text>
</g>
<!-- Product&#45;Configuration&#45;Service&#45;&gt;Product&#45;Metadata&#45;Aggregator -->
<g id="edge10" class="edge">
<title>Product&#45;Configuration&#45;Service&#45;&gt;Product&#45;Metadata&#45;Aggregator</title>
<path fill="none" stroke="black" d="M583.7,-361.72C625.08,-350.96 680.68,-336.49 724.32,-325.13"/>
<polygon fill="black" stroke="black" points="725.16,-328.53 733.96,-322.62 723.4,-321.76 725.16,-328.53"/>
</g>
<!-- Price&#45;Orchestration&#45;Service -->
<g id="node25" class="node">
<title>Price&#45;Orchestration&#45;Service</title>
<ellipse fill="none" stroke="black" cx="218" cy="-306" rx="113.79" ry="18"/>
<text text-anchor="middle" x="218" y="-300.95" font-family="Times,serif" font-size="14.00">Price&#45;Orchestration&#45;Service</text>
</g>
<!-- Product&#45;Configuration&#45;Service&#45;&gt;Price&#45;Orchestration&#45;Service -->
<g id="edge16" class="edge">
<title>Product&#45;Configuration&#45;Service&#45;&gt;Price&#45;Orchestration&#45;Service</title>
<path fill="none" stroke="black" d="M460.27,-362.24C411.1,-351.03 343.42,-335.6 292.09,-323.89"/>
<polygon fill="black" stroke="black" points="293.07,-320.53 282.54,-321.72 291.51,-327.35 293.07,-320.53"/>
</g>
<!-- Product&#45;Content&#45;Assembly&#45;Service -->
<g id="node20" class="node">
<title>Product&#45;Content&#45;Assembly&#45;Service</title>
<ellipse fill="none" stroke="black" cx="794" cy="-234" rx="142.97" ry="18"/>
<text text-anchor="middle" x="794" y="-228.95" font-family="Times,serif" font-size="14.00">Product&#45;Content&#45;Assembly&#45;Service</text>
</g>
<!-- Product&#45;Metadata&#45;Aggregator&#45;&gt;Product&#45;Content&#45;Assembly&#45;Service -->
<g id="edge11" class="edge">
<title>Product&#45;Metadata&#45;Aggregator&#45;&gt;Product&#45;Content&#45;Assembly&#45;Service</title>
<path fill="none" stroke="black" d="M794,-287.7C794,-280.41 794,-271.73 794,-263.54"/>
<polygon fill="black" stroke="black" points="797.5,-263.62 794,-253.62 790.5,-263.62 797.5,-263.62"/>
</g>
<!-- Tag&#45;Taxonomy&#45;Service -->
<g id="node21" class="node">
<title>Tag&#45;Taxonomy&#45;Service</title>
<ellipse fill="none" stroke="black" cx="534" cy="-234" rx="99.46" ry="18"/>
<text text-anchor="middle" x="534" y="-228.95" font-family="Times,serif" font-size="14.00">Tag&#45;Taxonomy&#45;Service</text>
</g>
<!-- Product&#45;Metadata&#45;Aggregator&#45;&gt;Tag&#45;Taxonomy&#45;Service -->
<g id="edge12" class="edge">
<title>Product&#45;Metadata&#45;Aggregator&#45;&gt;Tag&#45;Taxonomy&#45;Service</title>
<path fill="none" stroke="black" d="M736.94,-289.64C696.19,-278.67 641.29,-263.89 598.87,-252.47"/>
<polygon fill="black" stroke="black" points="599.84,-249.1 589.28,-249.88 598.02,-255.86 599.84,-249.1"/>
</g>
<!-- Inventory&#45;Orchestrator -->
<g id="node22" class="node">
<title>Inventory&#45;Orchestrator</title>
<ellipse fill="none" stroke="black" cx="1051" cy="-234" rx="95.88" ry="18"/>
<text text-anchor="middle" x="1051" y="-228.95" font-family="Times,serif" font-size="14.00">Inventory&#45;Orchestrator</text>
</g>
<!-- Product&#45;Metadata&#45;Aggregator&#45;&gt;Inventory&#45;Orchestrator -->
<g id="edge13" class="edge">
<title>Product&#45;Metadata&#45;Aggregator&#45;&gt;Inventory&#45;Orchestrator</title>
<path fill="none" stroke="black" d="M850.4,-289.64C890.82,-278.63 945.31,-263.79 987.3,-252.35"/>
<polygon fill="black" stroke="black" points="988.05,-255.77 996.78,-249.77 986.21,-249.02 988.05,-255.77"/>
</g>
<!-- Inventory&#45;Analysis&#45;Service -->
<g id="node23" class="node">
<title>Inventory&#45;Analysis&#45;Service</title>
<ellipse fill="none" stroke="black" cx="1162" cy="-162" rx="112.77" ry="18"/>
<text text-anchor="middle" x="1162" y="-156.95" font-family="Times,serif" font-size="14.00">Inventory&#45;Analysis&#45;Service</text>
</g>
<!-- Inventory&#45;Orchestrator&#45;&gt;Inventory&#45;Analysis&#45;Service -->
<g id="edge14" class="edge">
<title>Inventory&#45;Orchestrator&#45;&gt;Inventory&#45;Analysis&#45;Service</title>
<path fill="none" stroke="black" d="M1077.59,-216.23C1092.03,-207.12 1110.11,-195.72 1125.82,-185.82"/>
<polygon fill="black" stroke="black" points="1127.37,-188.97 1133.96,-180.68 1123.64,-183.05 1127.37,-188.97"/>
</g>
<!-- Backorder&#45;Analysis&#45;Service -->
<g id="node24" class="node">
<title>Backorder&#45;Analysis&#45;Service</title>
<ellipse fill="none" stroke="black" cx="1162" cy="-90" rx="115.33" ry="18"/>
<text text-anchor="middle" x="1162" y="-84.95" font-family="Times,serif" font-size="14.00">Backorder&#45;Analysis&#45;Service</text>
</g>
<!-- Inventory&#45;Analysis&#45;Service&#45;&gt;Backorder&#45;Analysis&#45;Service -->
<g id="edge15" class="edge">
<title>Inventory&#45;Analysis&#45;Service&#45;&gt;Backorder&#45;Analysis&#45;Service</title>
<path fill="none" stroke="black" d="M1162,-143.7C1162,-136.41 1162,-127.73 1162,-119.54"/>
<polygon fill="black" stroke="black" points="1165.5,-119.62 1162,-109.62 1158.5,-119.62 1165.5,-119.62"/>
</g>
<!-- Market&#45;Intelligence&#45;Service -->
<g id="node28" class="node">
<title>Market&#45;Intelligence&#45;Service</title>
<ellipse fill="none" stroke="black" cx="299" cy="-234" rx="115.33" ry="18"/>
<text text-anchor="middle" x="299" y="-228.95" font-family="Times,serif" font-size="14.00">Market&#45;Intelligence&#45;Service</text>
</g>
<!-- Price&#45;Orchestration&#45;Service&#45;&gt;Market&#45;Intelligence&#45;Service -->
<g id="edge19" class="edge">
<title>Price&#45;Orchestration&#45;Service&#45;&gt;Market&#45;Intelligence&#45;Service</title>
<path fill="none" stroke="black" d="M237.61,-288.05C247.58,-279.43 259.89,-268.8 270.85,-259.32"/>
<polygon fill="black" stroke="black" points="272.87,-262.21 278.15,-253.02 268.29,-256.91 272.87,-262.21"/>
</g>
<!-- Cart&#45;Pricing&#45;Service -->
<g id="node26" class="node">
<title>Cart&#45;Pricing&#45;Service</title>
<ellipse fill="none" stroke="black" cx="217" cy="-378" rx="87.18" ry="18"/>
<text text-anchor="middle" x="217" y="-372.95" font-family="Times,serif" font-size="14.00">Cart&#45;Pricing&#45;Service</text>
</g>
<!-- Cart&#45;Pricing&#45;Service&#45;&gt;Price&#45;Orchestration&#45;Service -->
<g id="edge17" class="edge">
<title>Cart&#45;Pricing&#45;Service&#45;&gt;Price&#45;Orchestration&#45;Service</title>
<path fill="none" stroke="black" d="M217.25,-359.7C217.35,-352.41 217.48,-343.73 217.59,-335.54"/>
<polygon fill="black" stroke="black" points="221.09,-335.67 217.73,-325.62 214.09,-335.57 221.09,-335.67"/>
</g>
<!-- Checkout&#45;Pricing&#45;Service -->
<g id="node27" class="node">
<title>Checkout&#45;Pricing&#45;Service</title>
<ellipse fill="none" stroke="black" cx="1440" cy="-882" rx="106.63" ry="18"/>
<text text-anchor="middle" x="1440" y="-876.95" font-family="Times,serif" font-size="14.00">Checkout&#45;Pricing&#45;Service</text>
</g>
<!-- Checkout&#45;Pricing&#45;Service&#45;&gt;Price&#45;Orchestration&#45;Service -->
<g id="edge18" class="edge">
<title>Checkout&#45;Pricing&#45;Service&#45;&gt;Price&#45;Orchestration&#45;Service</title>
<path fill="none" stroke="black" d="M1332.94,-881.65C999.22,-882.26 0,-872.93 0,-739 0,-739 0,-739 0,-449 0,-380.04 77.53,-342.83 140.12,-324.02"/>
<polygon fill="black" stroke="black" points="140.72,-327.49 149.36,-321.36 138.78,-320.77 140.72,-327.49"/>
</g>
<!-- Tax&#45;Service -->
<g id="node37" class="node">
<title>Tax&#45;Service</title>
<ellipse fill="none" stroke="black" cx="1440" cy="-810" rx="55.96" ry="18"/>
<text text-anchor="middle" x="1440" y="-804.95" font-family="Times,serif" font-size="14.00">Tax&#45;Service</text>
</g>
<!-- Checkout&#45;Pricing&#45;Service&#45;&gt;Tax&#45;Service -->
<g id="edge31" class="edge">
<title>Checkout&#45;Pricing&#45;Service&#45;&gt;Tax&#45;Service</title>
<path fill="none" stroke="black" d="M1440,-863.7C1440,-856.41 1440,-847.73 1440,-839.54"/>
<polygon fill="black" stroke="black" points="1443.5,-839.62 1440,-829.62 1436.5,-839.62 1443.5,-839.62"/>
</g>
<!-- Price&#45;Calculation&#45;Service -->
<g id="node29" class="node">
<title>Price&#45;Calculation&#45;Service</title>
<ellipse fill="none" stroke="black" cx="299" cy="-162" rx="106.11" ry="18"/>
<text text-anchor="middle" x="299" y="-156.95" font-family="Times,serif" font-size="14.00">Price&#45;Calculation&#45;Service</text>
</g>
<!-- Market&#45;Intelligence&#45;Service&#45;&gt;Price&#45;Calculation&#45;Service -->
<g id="edge20" class="edge">
<title>Market&#45;Intelligence&#45;Service&#45;&gt;Price&#45;Calculation&#45;Service</title>
<path fill="none" stroke="black" d="M299,-215.7C299,-208.41 299,-199.73 299,-191.54"/>
<polygon fill="black" stroke="black" points="302.5,-191.62 299,-181.62 295.5,-191.62 302.5,-191.62"/>
</g>
<!-- Price&#45;Assembly&#45;Service -->
<g id="node30" class="node">
<title>Price&#45;Assembly&#45;Service</title>
<ellipse fill="none" stroke="black" cx="299" cy="-90" rx="101" ry="18"/>
<text text-anchor="middle" x="299" y="-84.95" font-family="Times,serif" font-size="14.00">Price&#45;Assembly&#45;Service</text>
</g>
<!-- Price&#45;Calculation&#45;Service&#45;&gt;Price&#45;Assembly&#45;Service -->
<g id="edge21" class="edge">
<title>Price&#45;Calculation&#45;Service&#45;&gt;Price&#45;Assembly&#45;Service</title>
<path fill="none" stroke="black" d="M299,-143.7C299,-136.41 299,-127.73 299,-119.54"/>
<polygon fill="black" stroke="black" points="302.5,-119.62 299,-109.62 295.5,-119.62 302.5,-119.62"/>
</g>
<!-- Discount&#45;Strategy&#45;Service -->
<g id="node31" class="node">
<title>Discount&#45;Strategy&#45;Service</title>
<ellipse fill="none" stroke="black" cx="299" cy="-18" rx="108.67" ry="18"/>
<text text-anchor="middle" x="299" y="-12.95" font-family="Times,serif" font-size="14.00">Discount&#45;Strategy&#45;Service</text>
</g>
<!-- Price&#45;Assembly&#45;Service&#45;&gt;Discount&#45;Strategy&#45;Service -->
<g id="edge22" class="edge">
<title>Price&#45;Assembly&#45;Service&#45;&gt;Discount&#45;Strategy&#45;Service</title>
<path fill="none" stroke="black" d="M299,-71.7C299,-64.41 299,-55.73 299,-47.54"/>
<polygon fill="black" stroke="black" points="302.5,-47.62 299,-37.62 295.5,-47.62 302.5,-47.62"/>
</g>
<!-- Cart&#45;Management&#45;Service&#45;&gt;Cart&#45;Pricing&#45;Service -->
<g id="edge24" class="edge">
<title>Cart&#45;Management&#45;Service&#45;&gt;Cart&#45;Pricing&#45;Service</title>
<path fill="none" stroke="black" d="M187.64,-431.7C191.94,-423.98 197.1,-414.71 201.89,-406.11"/>
<polygon fill="black" stroke="black" points="204.92,-407.87 206.73,-397.43 198.81,-404.46 204.92,-407.87"/>
</g>
<!-- Search&#45;Processing&#45;Service&#45;&gt;Search&#45;Results&#45;Service -->
<g id="edge26" class="edge">
<title>Search&#45;Processing&#45;Service&#45;&gt;Search&#45;Results&#45;Service</title>
<path fill="none" stroke="black" d="M365,-575.7C365,-568.41 365,-559.73 365,-551.54"/>
<polygon fill="black" stroke="black" points="368.5,-551.62 365,-541.62 361.5,-551.62 368.5,-551.62"/>
</g>
<!-- Search&#45;Results&#45;Service&#45;&gt;Product&#45;Resolution&#45;Service -->
<g id="edge27" class="edge">
<title>Search&#45;Results&#45;Service&#45;&gt;Product&#45;Resolution&#45;Service</title>
<path fill="none" stroke="black" d="M401.71,-504.94C424.13,-495.13 453.05,-482.48 477.24,-471.9"/>
<polygon fill="black" stroke="black" points="478.49,-475.17 486.24,-467.96 475.68,-468.76 478.49,-475.17"/>
</g>
<!-- Checkout&#45;Validation&#45;Service&#45;&gt;Profile&#45;Management&#45;Service -->
<g id="edge47" class="edge">
<title>Checkout&#45;Validation&#45;Service&#45;&gt;Profile&#45;Management&#45;Service</title>
<path fill="none" stroke="black" d="M1580.37,-1009.29C1612.95,-998.92 1655.85,-985.27 1690.48,-974.26"/>
<polygon fill="black" stroke="black" points="1691.5,-977.6 1699.97,-971.24 1689.38,-970.93 1691.5,-977.6"/>
</g>
<!-- Address&#45;Validation&#45;Service -->
<g id="node36" class="node">
<title>Address&#45;Validation&#45;Service</title>
<ellipse fill="none" stroke="black" cx="1501" cy="-954" rx="112.77" ry="18"/>
<text text-anchor="middle" x="1501" y="-948.95" font-family="Times,serif" font-size="14.00">Address&#45;Validation&#45;Service</text>
</g>
<!-- Checkout&#45;Validation&#45;Service&#45;&gt;Address&#45;Validation&#45;Service -->
<g id="edge29" class="edge">
<title>Checkout&#45;Validation&#45;Service&#45;&gt;Address&#45;Validation&#45;Service</title>
<path fill="none" stroke="black" d="M1523.58,-1007.7C1520.35,-1000.15 1516.48,-991.12 1512.86,-982.68"/>
<polygon fill="black" stroke="black" points="1516.08,-981.31 1508.93,-973.5 1509.65,-984.07 1516.08,-981.31"/>
</g>
<!-- Address&#45;Validation&#45;Service&#45;&gt;Checkout&#45;Pricing&#45;Service -->
<g id="edge30" class="edge">
<title>Address&#45;Validation&#45;Service&#45;&gt;Checkout&#45;Pricing&#45;Service</title>
<path fill="none" stroke="black" d="M1485.92,-935.7C1478.83,-927.56 1470.23,-917.69 1462.4,-908.7"/>
<polygon fill="black" stroke="black" points="1465.11,-906.49 1455.9,-901.25 1459.83,-911.08 1465.11,-906.49"/>
</g>
<!-- Address&#45;Validation&#45;Service&#45;&gt;Address&#45;Processing&#45;Service -->
<g id="edge48" class="edge">
<title>Address&#45;Validation&#45;Service&#45;&gt;Address&#45;Processing&#45;Service</title>
<path fill="none" stroke="black" d="M1555.25,-937.81C1593.53,-927.09 1645.01,-912.68 1685.57,-901.32"/>
<polygon fill="black" stroke="black" points="1686.29,-904.75 1694.97,-898.69 1684.4,-898.01 1686.29,-904.75"/>
</g>
<!-- Tax&#45;Assembly&#45;Service -->
<g id="node38" class="node">
<title>Tax&#45;Assembly&#45;Service</title>
<ellipse fill="none" stroke="black" cx="1410" cy="-738" rx="96.39" ry="18"/>
<text text-anchor="middle" x="1410" y="-732.95" font-family="Times,serif" font-size="14.00">Tax&#45;Assembly&#45;Service</text>
</g>
<!-- Tax&#45;Service&#45;&gt;Tax&#45;Assembly&#45;Service -->
<g id="edge32" class="edge">
<title>Tax&#45;Service&#45;&gt;Tax&#45;Assembly&#45;Service</title>
<path fill="none" stroke="black" d="M1432.58,-791.7C1429.35,-784.15 1425.48,-775.12 1421.86,-766.68"/>
<polygon fill="black" stroke="black" points="1425.08,-765.31 1417.93,-757.5 1418.65,-768.07 1425.08,-765.31"/>
</g>
<!-- Geographic&#45;Classification&#45;Service -->
<g id="node51" class="node">
<title>Geographic&#45;Classification&#45;Service</title>
<ellipse fill="none" stroke="black" cx="1782" cy="-738" rx="138.36" ry="18"/>
<text text-anchor="middle" x="1782" y="-732.95" font-family="Times,serif" font-size="14.00">Geographic&#45;Classification&#45;Service</text>
</g>
<!-- Tax&#45;Service&#45;&gt;Geographic&#45;Classification&#45;Service -->
<g id="edge49" class="edge">
<title>Tax&#45;Service&#45;&gt;Geographic&#45;Classification&#45;Service</title>
<path fill="none" stroke="black" d="M1486.12,-799.56C1540.53,-788.42 1632.01,-769.7 1698.88,-756.01"/>
<polygon fill="black" stroke="black" points="1699.23,-759.51 1708.32,-754.08 1697.83,-752.66 1699.23,-759.51"/>
</g>
<!-- Payment&#45;Processing&#45;Service -->
<g id="node39" class="node">
<title>Payment&#45;Processing&#45;Service</title>
<ellipse fill="none" stroke="black" cx="1413" cy="-666" rx="117.37" ry="18"/>
<text text-anchor="middle" x="1413" y="-660.95" font-family="Times,serif" font-size="14.00">Payment&#45;Processing&#45;Service</text>
</g>
<!-- Tax&#45;Assembly&#45;Service&#45;&gt;Payment&#45;Processing&#45;Service -->
<g id="edge33" class="edge">
<title>Tax&#45;Assembly&#45;Service&#45;&gt;Payment&#45;Processing&#45;Service</title>
<path fill="none" stroke="black" d="M1410.74,-719.7C1411.05,-712.41 1411.43,-703.73 1411.78,-695.54"/>
<polygon fill="black" stroke="black" points="1415.27,-695.76 1412.2,-685.62 1408.28,-695.46 1415.27,-695.76"/>
</g>
<!-- Payment&#45;Settlement&#45;Service -->
<g id="node40" class="node">
<title>Payment&#45;Settlement&#45;Service</title>
<ellipse fill="none" stroke="black" cx="1436" cy="-594" rx="117.37" ry="18"/>
<text text-anchor="middle" x="1436" y="-588.95" font-family="Times,serif" font-size="14.00">Payment&#45;Settlement&#45;Service</text>
</g>
<!-- Payment&#45;Processing&#45;Service&#45;&gt;Payment&#45;Settlement&#45;Service -->
<g id="edge34" class="edge">
<title>Payment&#45;Processing&#45;Service&#45;&gt;Payment&#45;Settlement&#45;Service</title>
<path fill="none" stroke="black" d="M1418.69,-647.7C1421.14,-640.24 1424.07,-631.32 1426.81,-622.97"/>
<polygon fill="black" stroke="black" points="1430.11,-624.14 1429.91,-613.54 1423.46,-621.95 1430.11,-624.14"/>
</g>
<!-- Order&#45;Orchestration&#45;Service -->
<g id="node41" class="node">
<title>Order&#45;Orchestration&#45;Service</title>
<ellipse fill="none" stroke="black" cx="1436" cy="-522" rx="116.35" ry="18"/>
<text text-anchor="middle" x="1436" y="-516.95" font-family="Times,serif" font-size="14.00">Order&#45;Orchestration&#45;Service</text>
</g>
<!-- Payment&#45;Settlement&#45;Service&#45;&gt;Order&#45;Orchestration&#45;Service -->
<g id="edge35" class="edge">
<title>Payment&#45;Settlement&#45;Service&#45;&gt;Order&#45;Orchestration&#45;Service</title>
<path fill="none" stroke="black" d="M1436,-575.7C1436,-568.41 1436,-559.73 1436,-551.54"/>
<polygon fill="black" stroke="black" points="1439.5,-551.62 1436,-541.62 1432.5,-551.62 1439.5,-551.62"/>
</g>
<!-- Order&#45;Validation&#45;Service -->
<g id="node42" class="node">
<title>Order&#45;Validation&#45;Service</title>
<ellipse fill="none" stroke="black" cx="1436" cy="-450" rx="104.07" ry="18"/>
<text text-anchor="middle" x="1436" y="-444.95" font-family="Times,serif" font-size="14.00">Order&#45;Validation&#45;Service</text>
</g>
<!-- Order&#45;Orchestration&#45;Service&#45;&gt;Order&#45;Validation&#45;Service -->
<g id="edge36" class="edge">
<title>Order&#45;Orchestration&#45;Service&#45;&gt;Order&#45;Validation&#45;Service</title>
<path fill="none" stroke="black" d="M1436,-503.7C1436,-496.41 1436,-487.73 1436,-479.54"/>
<polygon fill="black" stroke="black" points="1439.5,-479.62 1436,-469.62 1432.5,-479.62 1439.5,-479.62"/>
</g>
<!-- Fulfillment&#45;Planning&#45;Service -->
<g id="node43" class="node">
<title>Fulfillment&#45;Planning&#45;Service</title>
<ellipse fill="none" stroke="black" cx="1436" cy="-378" rx="119.42" ry="18"/>
<text text-anchor="middle" x="1436" y="-372.95" font-family="Times,serif" font-size="14.00">Fulfillment&#45;Planning&#45;Service</text>
</g>
<!-- Order&#45;Validation&#45;Service&#45;&gt;Fulfillment&#45;Planning&#45;Service -->
<g id="edge37" class="edge">
<title>Order&#45;Validation&#45;Service&#45;&gt;Fulfillment&#45;Planning&#45;Service</title>
<path fill="none" stroke="black" d="M1436,-431.7C1436,-424.41 1436,-415.73 1436,-407.54"/>
<polygon fill="black" stroke="black" points="1439.5,-407.62 1436,-397.62 1432.5,-407.62 1439.5,-407.62"/>
</g>
<!-- Order&#45;Batching&#45;Service -->
<g id="node44" class="node">
<title>Order&#45;Batching&#45;Service</title>
<ellipse fill="none" stroke="black" cx="1436" cy="-306" rx="99.46" ry="18"/>
<text text-anchor="middle" x="1436" y="-300.95" font-family="Times,serif" font-size="14.00">Order&#45;Batching&#45;Service</text>
</g>
<!-- Fulfillment&#45;Planning&#45;Service&#45;&gt;Order&#45;Batching&#45;Service -->
<g id="edge38" class="edge">
<title>Fulfillment&#45;Planning&#45;Service&#45;&gt;Order&#45;Batching&#45;Service</title>
<path fill="none" stroke="black" d="M1436,-359.7C1436,-352.41 1436,-343.73 1436,-335.54"/>
<polygon fill="black" stroke="black" points="1439.5,-335.62 1436,-325.62 1432.5,-335.62 1439.5,-335.62"/>
</g>
<!-- Order&#45;Batching&#45;Service&#45;&gt;Inventory&#45;Orchestrator -->
<g id="edge58" class="edge">
<title>Order&#45;Batching&#45;Service&#45;&gt;Inventory&#45;Orchestrator</title>
<path fill="none" stroke="black" d="M1367.61,-292.57C1300.75,-280.41 1199.05,-261.92 1129.06,-249.19"/>
<polygon fill="black" stroke="black" points="1130.06,-245.82 1119.59,-247.47 1128.81,-252.7 1130.06,-245.82"/>
</g>
<!-- Resource&#45;Allocation&#45;Service -->
<g id="node45" class="node">
<title>Resource&#45;Allocation&#45;Service</title>
<ellipse fill="none" stroke="black" cx="1468" cy="-234" rx="117.89" ry="18"/>
<text text-anchor="middle" x="1468" y="-228.95" font-family="Times,serif" font-size="14.00">Resource&#45;Allocation&#45;Service</text>
</g>
<!-- Order&#45;Batching&#45;Service&#45;&gt;Resource&#45;Allocation&#45;Service -->
<g id="edge39" class="edge">
<title>Order&#45;Batching&#45;Service&#45;&gt;Resource&#45;Allocation&#45;Service</title>
<path fill="none" stroke="black" d="M1443.91,-287.7C1447.4,-280.07 1451.58,-270.92 1455.48,-262.4"/>
<polygon fill="black" stroke="black" points="1458.58,-264.03 1459.55,-253.48 1452.21,-261.12 1458.58,-264.03"/>
</g>
<!-- Shipping&#45;Orchestration&#45;Service -->
<g id="node46" class="node">
<title>Shipping&#45;Orchestration&#45;Service</title>
<ellipse fill="none" stroke="black" cx="1481" cy="-162" rx="128.12" ry="18"/>
<text text-anchor="middle" x="1481" y="-156.95" font-family="Times,serif" font-size="14.00">Shipping&#45;Orchestration&#45;Service</text>
</g>
<!-- Resource&#45;Allocation&#45;Service&#45;&gt;Shipping&#45;Orchestration&#45;Service -->
<g id="edge40" class="edge">
<title>Resource&#45;Allocation&#45;Service&#45;&gt;Shipping&#45;Orchestration&#45;Service</title>
<path fill="none" stroke="black" d="M1471.21,-215.7C1472.58,-208.32 1474.22,-199.52 1475.75,-191.25"/>
<polygon fill="black" stroke="black" points="1479.16,-192.06 1477.55,-181.59 1472.28,-190.79 1479.16,-192.06"/>
</g>
<!-- Carrier&#45;Route&#45;Service -->
<g id="node47" class="node">
<title>Carrier&#45;Route&#45;Service</title>
<ellipse fill="none" stroke="black" cx="1630" cy="-90" rx="92.81" ry="18"/>
<text text-anchor="middle" x="1630" y="-84.95" font-family="Times,serif" font-size="14.00">Carrier&#45;Route&#45;Service</text>
</g>
<!-- Shipping&#45;Orchestration&#45;Service&#45;&gt;Carrier&#45;Route&#45;Service -->
<g id="edge41" class="edge">
<title>Shipping&#45;Orchestration&#45;Service&#45;&gt;Carrier&#45;Route&#45;Service</title>
<path fill="none" stroke="black" d="M1516.69,-144.23C1537.26,-134.57 1563.3,-122.33 1585.23,-112.03"/>
<polygon fill="black" stroke="black" points="1586.7,-115.21 1594.26,-107.79 1583.72,-108.88 1586.7,-115.21"/>
</g>
<!-- Shipment&#45;Delivery&#45;Service -->
<g id="node48" class="node">
<title>Shipment&#45;Delivery&#45;Service</title>
<ellipse fill="none" stroke="black" cx="1630" cy="-18" rx="112.77" ry="18"/>
<text text-anchor="middle" x="1630" y="-12.95" font-family="Times,serif" font-size="14.00">Shipment&#45;Delivery&#45;Service</text>
</g>
<!-- Carrier&#45;Route&#45;Service&#45;&gt;Shipment&#45;Delivery&#45;Service -->
<g id="edge42" class="edge">
<title>Carrier&#45;Route&#45;Service&#45;&gt;Shipment&#45;Delivery&#45;Service</title>
<path fill="none" stroke="black" d="M1630,-71.7C1630,-64.41 1630,-55.73 1630,-47.54"/>
<polygon fill="black" stroke="black" points="1633.5,-47.62 1630,-37.62 1626.5,-47.62 1633.5,-47.62"/>
</g>
<!-- Order&#45;Status&#45;Service&#45;&gt;Order&#45;Orchestration&#45;Service -->
<g id="edge44" class="edge">
<title>Order&#45;Status&#45;Service&#45;&gt;Order&#45;Orchestration&#45;Service</title>
<path fill="none" stroke="black" d="M1613.04,-578.33C1579.18,-567.74 1533.18,-553.37 1496.56,-541.92"/>
<polygon fill="black" stroke="black" points="1498.04,-538.72 1487.45,-539.08 1495.95,-545.4 1498.04,-538.72"/>
</g>
<!-- Address&#45;Processing&#45;Service&#45;&gt;Geographic&#45;Classification&#45;Service -->
<g id="edge46" class="edge">
<title>Address&#45;Processing&#45;Service&#45;&gt;Geographic&#45;Classification&#45;Service</title>
<path fill="none" stroke="black" d="M1754.8,-863.59C1760.06,-839.5 1769.61,-795.75 1775.88,-767.03"/>
<polygon fill="black" stroke="black" points="1779.23,-768.11 1777.94,-757.59 1772.39,-766.61 1779.23,-768.11"/>
</g>
<!-- Geographic&#45;Classification&#45;Service&#45;&gt;Carrier&#45;Route&#45;Service -->
<g id="edge60" class="edge">
<title>Geographic&#45;Classification&#45;Service&#45;&gt;Carrier&#45;Route&#45;Service</title>
<path fill="none" stroke="black" d="M1781.39,-719.51C1780.52,-692.72 1779,-639.88 1779,-595 1779,-595 1779,-595 1779,-233 1779,-175.93 1721.02,-134.81 1677.39,-111.94"/>
<polygon fill="black" stroke="black" points="1679.07,-108.86 1668.57,-107.48 1675.91,-115.11 1679.07,-108.86"/>
</g>
<!-- Listing&#45;Processing&#45;Service&#45;&gt;Inventory&#45;Orchestrator -->
<g id="edge59" class="edge">
<title>Listing&#45;Processing&#45;Service&#45;&gt;Inventory&#45;Orchestrator</title>
<path fill="none" stroke="black" d="M880.94,-576.27C893.83,-567.01 908.49,-554.46 918,-540 940.64,-505.57 944,-492.21 944,-451 944,-451 944,-451 944,-377 944,-336.55 939.51,-320.93 963,-288 972.59,-274.55 986.76,-263.9 1000.94,-255.77"/>
<polygon fill="black" stroke="black" points="1002.2,-259.07 1009.37,-251.27 998.9,-252.9 1002.2,-259.07"/>
</g>
<!-- Listing&#45;Processing&#45;Service&#45;&gt;Market&#45;Intelligence&#45;Service -->
<g id="edge62" class="edge">
<title>Listing&#45;Processing&#45;Service&#45;&gt;Market&#45;Intelligence&#45;Service</title>
<path fill="none" stroke="black" d="M867.15,-575.91C873.92,-566.01 881.49,-552.96 885,-540 897.55,-493.67 913.02,-470.98 885,-432 853.7,-388.45 514.06,-292.82 366.64,-252.98"/>
<polygon fill="black" stroke="black" points="367.97,-249.71 357.4,-250.49 366.15,-256.47 367.97,-249.71"/>
</g>
<!-- Listing&#45;Publication&#45;Service -->
<g id="node53" class="node">
<title>Listing&#45;Publication&#45;Service</title>
<ellipse fill="none" stroke="black" cx="763" cy="-522" rx="112.77" ry="18"/>
<text text-anchor="middle" x="763" y="-516.95" font-family="Times,serif" font-size="14.00">Listing&#45;Publication&#45;Service</text>
</g>
<!-- Listing&#45;Processing&#45;Service&#45;&gt;Listing&#45;Publication&#45;Service -->
<g id="edge51" class="edge">
<title>Listing&#45;Processing&#45;Service&#45;&gt;Listing&#45;Publication&#45;Service</title>
<path fill="none" stroke="black" d="M831.97,-576.05C820.65,-567.35 806.67,-556.59 794.26,-547.04"/>
<polygon fill="black" stroke="black" points="796.4,-544.28 786.34,-540.95 792.13,-549.83 796.4,-544.28"/>
</g>
<!-- Listing&#45;Publication&#45;Service&#45;&gt;Product&#45;Resolution&#45;Service -->
<g id="edge54" class="edge">
<title>Listing&#45;Publication&#45;Service&#45;&gt;Product&#45;Resolution&#45;Service</title>
<path fill="none" stroke="black" d="M710.77,-505.64C674.65,-495.02 626.4,-480.82 588.13,-469.57"/>
<polygon fill="black" stroke="black" points="589.14,-466.22 578.56,-466.75 587.17,-472.93 589.14,-466.22"/>
</g>
<!-- Seller&#45;Order&#45;Management&#45;Service&#45;&gt;Order&#45;Orchestration&#45;Service -->
<g id="edge55" class="edge">
<title>Seller&#45;Order&#45;Management&#45;Service&#45;&gt;Order&#45;Orchestration&#45;Service</title>
<path fill="none" stroke="black" d="M1222.37,-577.38C1264.99,-566.53 1321.84,-552.06 1366.18,-540.77"/>
<polygon fill="black" stroke="black" points="1366.88,-544.21 1375.7,-538.35 1365.15,-537.42 1366.88,-544.21"/>
</g>
<!-- Seller&#45;Inventory&#45;Service&#45;&gt;Inventory&#45;Orchestrator -->
<g id="edge56" class="edge">
<title>Seller&#45;Inventory&#45;Service&#45;&gt;Inventory&#45;Orchestrator</title>
<path fill="none" stroke="black" d="M1068.31,-287.7C1065.86,-280.24 1062.93,-271.32 1060.19,-262.97"/>
<polygon fill="black" stroke="black" points="1063.54,-261.95 1057.09,-253.54 1056.89,-264.14 1063.54,-261.95"/>
</g>
<!-- Seller&#45;Inventory&#45;Service&#45;&gt;Inventory&#45;Analysis&#45;Service -->
<g id="edge63" class="edge">
<title>Seller&#45;Inventory&#45;Service&#45;&gt;Inventory&#45;Analysis&#45;Service</title>
<path fill="none" stroke="black" d="M1113.5,-289.09C1129.47,-280.55 1146.37,-268.36 1156,-252 1166.64,-233.94 1167.7,-210.1 1166.34,-191.63"/>
<polygon fill="black" stroke="black" points="1169.85,-191.49 1165.34,-181.9 1162.89,-192.21 1169.85,-191.49"/>
</g>
<!-- Review&#45;Assembly&#45;Service&#45;&gt;Product&#45;Metadata&#45;Aggregator -->
<g id="edge65" class="edge">
<title>Review&#45;Assembly&#45;Service&#45;&gt;Product&#45;Metadata&#45;Aggregator</title>
<path fill="none" stroke="black" d="M769.43,-431.59C774.18,-407.5 782.81,-363.75 788.47,-335.03"/>
<polygon fill="black" stroke="black" points="791.83,-336.08 790.33,-325.6 784.96,-334.73 791.83,-336.08"/>
</g>
</g>
</svg>
