<?xml version="1.0" encoding="UTF-8" standalone="no"?>
<!DOCTYPE svg PUBLIC "-//W3C//DTD SVG 1.1//EN"
 "http://www.w3.org/Graphics/SVG/1.1/DTD/svg11.dtd">
<!-- Generated by graphviz version 12.2.1 (20241206.2353)
 -->
<!-- Title: ServiceGraph Pages: 1 -->
<svg width="813pt" height="332pt"
 viewBox="0.00 0.00 813.40 332.00" xmlns="http://www.w3.org/2000/svg" xmlns:xlink="http://www.w3.org/1999/xlink">
<g id="graph0" class="graph" transform="scale(1 1) rotate(0) translate(4 328)">
<title>ServiceGraph</title>
<polygon fill="white" stroke="none" points="-4,4 -4,-328 809.4,-328 809.4,4 -4,4"/>
<!-- FrontendService -->
<g id="node1" class="node">
<title>FrontendService</title>
<ellipse fill="none" stroke="black" cx="302.44" cy="-306" rx="71.82" ry="18"/>
<text text-anchor="middle" x="302.44" y="-300.95" font-family="Times,serif" font-size="14.00">FrontendService</text>
</g>
<!-- OrderService -->
<g id="node2" class="node">
<title>OrderService</title>
<ellipse fill="none" stroke="black" cx="302.44" cy="-234" rx="60.05" ry="18"/>
<text text-anchor="middle" x="302.44" y="-228.95" font-family="Times,serif" font-size="14.00">OrderService</text>
</g>
<!-- FrontendService&#45;&gt;OrderService -->
<g id="edge1" class="edge">
<title>FrontendService&#45;&gt;OrderService</title>
<path fill="none" stroke="black" d="M302.44,-287.7C302.44,-280.41 302.44,-271.73 302.44,-263.54"/>
<polygon fill="black" stroke="black" points="305.94,-263.62 302.44,-253.62 298.94,-263.62 305.94,-263.62"/>
</g>
<!-- ProductService -->
<g id="node3" class="node">
<title>ProductService</title>
<ellipse fill="none" stroke="black" cx="75.44" cy="-162" rx="67.22" ry="18"/>
<text text-anchor="middle" x="75.44" y="-156.95" font-family="Times,serif" font-size="14.00">ProductService</text>
</g>
<!-- FrontendService&#45;&gt;ProductService -->
<g id="edge2" class="edge">
<title>FrontendService&#45;&gt;ProductService</title>
<path fill="none" stroke="black" d="M276.84,-288.99C236.11,-263.51 156.49,-213.7 110.49,-184.93"/>
<polygon fill="black" stroke="black" points="112.56,-182.09 102.22,-179.76 108.85,-188.03 112.56,-182.09"/>
</g>
<!-- CustomerService -->
<g id="node4" class="node">
<title>CustomerService</title>
<ellipse fill="none" stroke="black" cx="575.44" cy="-162" rx="74.89" ry="18"/>
<text text-anchor="middle" x="575.44" y="-156.95" font-family="Times,serif" font-size="14.00">CustomerService</text>
</g>
<!-- FrontendService&#45;&gt;CustomerService -->
<g id="edge3" class="edge">
<title>FrontendService&#45;&gt;CustomerService</title>
<path fill="none" stroke="black" d="M332.7,-289.26C381.99,-263.62 479.68,-212.81 534.92,-184.08"/>
<polygon fill="black" stroke="black" points="536.44,-187.23 543.7,-179.51 533.21,-181.02 536.44,-187.23"/>
</g>
<!-- OrderService&#45;&gt;ProductService -->
<g id="edge4" class="edge">
<title>OrderService&#45;&gt;ProductService</title>
<path fill="none" stroke="black" d="M261.59,-220.4C224.53,-208.97 169.63,-192.05 129.04,-179.53"/>
<polygon fill="black" stroke="black" points="130.3,-176.26 119.71,-176.65 128.24,-182.95 130.3,-176.26"/>
</g>
<!-- OrderService&#45;&gt;CustomerService -->
<g id="edge5" class="edge">
<title>OrderService&#45;&gt;CustomerService</title>
<path fill="none" stroke="black" d="M346.91,-221.6C392.51,-209.9 463.78,-191.63 514.59,-178.6"/>
<polygon fill="black" stroke="black" points="515.15,-182.07 523.96,-176.2 513.41,-175.29 515.15,-182.07"/>
</g>
<!-- PaymentService -->
<g id="node5" class="node">
<title>PaymentService</title>
<ellipse fill="none" stroke="black" cx="411.44" cy="-162" rx="71.31" ry="18"/>
<text text-anchor="middle" x="411.44" y="-156.95" font-family="Times,serif" font-size="14.00">PaymentService</text>
</g>
<!-- OrderService&#45;&gt;PaymentService -->
<g id="edge6" class="edge">
<title>OrderService&#45;&gt;PaymentService</title>
<path fill="none" stroke="black" d="M327.17,-217.12C341.84,-207.7 360.66,-195.61 376.79,-185.25"/>
<polygon fill="black" stroke="black" points="378.63,-188.23 385.15,-179.88 374.84,-182.34 378.63,-188.23"/>
</g>
<!-- FulfillmentService -->
<g id="node6" class="node">
<title>FulfillmentService</title>
<ellipse fill="none" stroke="black" cx="241.44" cy="-162" rx="80.52" ry="18"/>
<text text-anchor="middle" x="241.44" y="-156.95" font-family="Times,serif" font-size="14.00">FulfillmentService</text>
</g>
<!-- OrderService&#45;&gt;FulfillmentService -->
<g id="edge7" class="edge">
<title>OrderService&#45;&gt;FulfillmentService</title>
<path fill="none" stroke="black" d="M287.98,-216.41C280.72,-208.08 271.76,-197.8 263.65,-188.49"/>
<polygon fill="black" stroke="black" points="266.42,-186.34 257.21,-181.1 261.14,-190.94 266.42,-186.34"/>
</g>
<!-- CatalogService -->
<g id="node7" class="node">
<title>CatalogService</title>
<ellipse fill="none" stroke="black" cx="79.44" cy="-18" rx="67.22" ry="18"/>
<text text-anchor="middle" x="79.44" y="-12.95" font-family="Times,serif" font-size="14.00">CatalogService</text>
</g>
<!-- ProductService&#45;&gt;CatalogService -->
<g id="edge8" class="edge">
<title>ProductService&#45;&gt;CatalogService</title>
<path fill="none" stroke="black" d="M43.69,-145.67C29.21,-136.84 13.51,-124.24 5.44,-108 -1.69,-93.67 -1.88,-86.23 5.44,-72 12.22,-58.8 23.98,-48.16 36.16,-39.96"/>
<polygon fill="black" stroke="black" points="37.98,-42.95 44.64,-34.72 34.29,-37 37.98,-42.95"/>
</g>
<!-- InventoryService -->
<g id="node8" class="node">
<title>InventoryService</title>
<ellipse fill="none" stroke="black" cx="237.44" cy="-90" rx="74.38" ry="18"/>
<text text-anchor="middle" x="237.44" y="-84.95" font-family="Times,serif" font-size="14.00">InventoryService</text>
</g>
<!-- ProductService&#45;&gt;InventoryService -->
<g id="edge9" class="edge">
<title>ProductService&#45;&gt;InventoryService</title>
<path fill="none" stroke="black" d="M109.79,-146.15C133.71,-135.82 165.86,-121.93 191.91,-110.67"/>
<polygon fill="black" stroke="black" points="193.11,-113.97 200.9,-106.79 190.33,-107.54 193.11,-113.97"/>
</g>
<!-- PricingService -->
<g id="node9" class="node">
<title>PricingService</title>
<ellipse fill="none" stroke="black" cx="79.44" cy="-90" rx="65.17" ry="18"/>
<text text-anchor="middle" x="79.44" y="-84.95" font-family="Times,serif" font-size="14.00">PricingService</text>
</g>
<!-- ProductService&#45;&gt;PricingService -->
<g id="edge10" class="edge">
<title>ProductService&#45;&gt;PricingService</title>
<path fill="none" stroke="black" d="M76.43,-143.7C76.84,-136.41 77.34,-127.73 77.81,-119.54"/>
<polygon fill="black" stroke="black" points="81.3,-119.8 78.37,-109.62 74.31,-119.4 81.3,-119.8"/>
</g>
<!-- ProfileService -->
<g id="node10" class="node">
<title>ProfileService</title>
<ellipse fill="none" stroke="black" cx="567.44" cy="-90" rx="63.63" ry="18"/>
<text text-anchor="middle" x="567.44" y="-84.95" font-family="Times,serif" font-size="14.00">ProfileService</text>
</g>
<!-- CustomerService&#45;&gt;ProfileService -->
<g id="edge11" class="edge">
<title>CustomerService&#45;&gt;ProfileService</title>
<path fill="none" stroke="black" d="M573.46,-143.7C572.63,-136.41 571.63,-127.73 570.7,-119.54"/>
<polygon fill="black" stroke="black" points="574.18,-119.15 569.56,-109.61 567.22,-119.94 574.18,-119.15"/>
</g>
<!-- AddressService -->
<g id="node11" class="node">
<title>AddressService</title>
<ellipse fill="none" stroke="black" cx="406.44" cy="-90" rx="68.75" ry="18"/>
<text text-anchor="middle" x="406.44" y="-84.95" font-family="Times,serif" font-size="14.00">AddressService</text>
</g>
<!-- CustomerService&#45;&gt;AddressService -->
<g id="edge12" class="edge">
<title>CustomerService&#45;&gt;AddressService</title>
<path fill="none" stroke="black" d="M539.18,-145.98C513.84,-135.49 479.79,-121.38 452.52,-110.09"/>
<polygon fill="black" stroke="black" points="454.03,-106.92 443.45,-106.33 451.35,-113.39 454.03,-106.92"/>
</g>
<!-- PreferenceService -->
<g id="node12" class="node">
<title>PreferenceService</title>
<ellipse fill="none" stroke="black" cx="727.44" cy="-90" rx="77.97" ry="18"/>
<text text-anchor="middle" x="727.44" y="-84.95" font-family="Times,serif" font-size="14.00">PreferenceService</text>
</g>
<!-- CustomerService&#45;&gt;PreferenceService -->
<g id="edge13" class="edge">
<title>CustomerService&#45;&gt;PreferenceService</title>
<path fill="none" stroke="black" d="M609.17,-145.46C630.94,-135.44 659.49,-122.29 683.08,-111.43"/>
<polygon fill="black" stroke="black" points="684.54,-114.61 692.16,-107.25 681.61,-108.25 684.54,-114.61"/>
</g>
<!-- FulfillmentService&#45;&gt;InventoryService -->
<g id="edge14" class="edge">
<title>FulfillmentService&#45;&gt;InventoryService</title>
<path fill="none" stroke="black" d="M240.45,-143.7C240.03,-136.41 239.54,-127.73 239.07,-119.54"/>
<polygon fill="black" stroke="black" points="242.57,-119.4 238.5,-109.62 235.58,-119.8 242.57,-119.4"/>
</g>
<!-- FulfillmentService&#45;&gt;AddressService -->
<g id="edge15" class="edge">
<title>FulfillmentService&#45;&gt;AddressService</title>
<path fill="none" stroke="black" d="M277.65,-145.64C302.16,-135.24 334.73,-121.42 360.99,-110.28"/>
<polygon fill="black" stroke="black" points="362.21,-113.56 370.05,-106.44 359.48,-107.12 362.21,-113.56"/>
</g>
<!-- InventoryService&#45;&gt;CatalogService -->
<g id="edge16" class="edge">
<title>InventoryService&#45;&gt;CatalogService</title>
<path fill="none" stroke="black" d="M202.76,-73.64C179.47,-63.32 148.59,-49.64 123.55,-38.54"/>
<polygon fill="black" stroke="black" points="125.16,-35.43 114.6,-34.58 122.32,-41.83 125.16,-35.43"/>
</g>
<!-- PricingService&#45;&gt;CatalogService -->
<g id="edge17" class="edge">
<title>PricingService&#45;&gt;CatalogService</title>
<path fill="none" stroke="black" d="M79.44,-71.7C79.44,-64.41 79.44,-55.73 79.44,-47.54"/>
<polygon fill="black" stroke="black" points="82.94,-47.62 79.44,-37.62 75.94,-47.62 82.94,-47.62"/>
</g>
</g>
</svg>
