<?xml version="1.0" encoding="UTF-8" standalone="no"?>
<!DOCTYPE svg PUBLIC "-//W3C//DTD SVG 1.1//EN"
 "http://www.w3.org/Graphics/SVG/1.1/DTD/svg11.dtd">
<!-- Generated by graphviz version 12.2.1 (20241206.2353)
 -->
<!-- Title: ServiceGraph Pages: 1 -->
<svg width="2237pt" height="733pt"
 viewBox="0.00 0.00 2236.78 733.00" xmlns="http://www.w3.org/2000/svg" xmlns:xlink="http://www.w3.org/1999/xlink">
<g id="graph0" class="graph" transform="scale(1 1) rotate(0) translate(4 729)">
<title>ServiceGraph</title>
<polygon fill="white" stroke="none" points="-4,4 -4,-729 2232.78,-729 2232.78,4 -4,4"/>
<!-- Catalog&#45;API -->
<g id="node1" class="node">
<title>Catalog&#45;API</title>
<ellipse fill="none" stroke="black" cx="242.26" cy="-571" rx="57.49" ry="18"/>
<text text-anchor="middle" x="242.26" y="-565.95" font-family="Times,serif" font-size="14.00">Catalog&#45;API</text>
</g>
<!-- Product&#45;Catalog&#45;Service -->
<g id="node2" class="node">
<title>Product&#45;Catalog&#45;Service</title>
<ellipse fill="none" stroke="black" cx="478.72" cy="-571" rx="102.02" ry="18"/>
<text text-anchor="middle" x="478.72" y="-565.95" font-family="Times,serif" font-size="14.00">Product&#45;Catalog&#45;Service</text>
</g>
<!-- Catalog&#45;API&#45;&gt;Product&#45;Catalog&#45;Service -->
<g id="edge1" class="edge">
<title>Catalog&#45;API&#45;&gt;Product&#45;Catalog&#45;Service</title>
<path fill="none" stroke="black" d="M300.01,-571C319.72,-571 342.57,-571 365.19,-571"/>
<polygon fill="black" stroke="black" points="365.1,-574.5 375.1,-571 365.1,-567.5 365.1,-574.5"/>
</g>
<!-- Catalog&#45;Aggregator&#45;Service -->
<g id="node18" class="node">
<title>Catalog&#45;Aggregator&#45;Service</title>
<ellipse fill="none" stroke="black" cx="1052.97" cy="-598" rx="115.33" ry="18"/>
<text text-anchor="middle" x="1052.97" y="-592.95" font-family="Times,serif" font-size="14.00">Catalog&#45;Aggregator&#45;Service</text>
</g>
<!-- Product&#45;Catalog&#45;Service&#45;&gt;Catalog&#45;Aggregator&#45;Service -->
<g id="edge9" class="edge">
<title>Product&#45;Catalog&#45;Service&#45;&gt;Catalog&#45;Aggregator&#45;Service</title>
<path fill="none" stroke="black" d="M575.9,-576.8C589.61,-577.57 603.53,-578.33 616.74,-579 722.21,-584.38 842.1,-589.54 929.31,-593.13"/>
<polygon fill="black" stroke="black" points="928.94,-596.61 939.07,-593.53 929.23,-589.62 928.94,-596.61"/>
</g>
<!-- Product&#45;Detail&#45;Enrichment&#45;Service -->
<g id="node27" class="node">
<title>Product&#45;Detail&#45;Enrichment&#45;Service</title>
<ellipse fill="none" stroke="black" cx="759.19" cy="-552" rx="142.45" ry="18"/>
<text text-anchor="middle" x="759.19" y="-546.95" font-family="Times,serif" font-size="14.00">Product&#45;Detail&#45;Enrichment&#45;Service</text>
</g>
<!-- Product&#45;Catalog&#45;Service&#45;&gt;Product&#45;Detail&#45;Enrichment&#45;Service -->
<g id="edge18" class="edge">
<title>Product&#45;Catalog&#45;Service&#45;&gt;Product&#45;Detail&#45;Enrichment&#45;Service</title>
<path fill="none" stroke="black" d="M574.38,-564.54C589.63,-563.5 605.67,-562.41 621.67,-561.31"/>
<polygon fill="black" stroke="black" points="621.47,-564.84 631.21,-560.66 621,-557.85 621.47,-564.84"/>
</g>
<!-- Cart&#45;API -->
<g id="node3" class="node">
<title>Cart&#45;API</title>
<ellipse fill="none" stroke="black" cx="242.26" cy="-437" rx="44.7" ry="18"/>
<text text-anchor="middle" x="242.26" y="-431.95" font-family="Times,serif" font-size="14.00">Cart&#45;API</text>
</g>
<!-- ShoppingCart&#45;Service -->
<g id="node4" class="node">
<title>ShoppingCart&#45;Service</title>
<ellipse fill="none" stroke="black" cx="478.72" cy="-437" rx="92.81" ry="18"/>
<text text-anchor="middle" x="478.72" y="-431.95" font-family="Times,serif" font-size="14.00">ShoppingCart&#45;Service</text>
</g>
<!-- Cart&#45;API&#45;&gt;ShoppingCart&#45;Service -->
<g id="edge2" class="edge">
<title>Cart&#45;API&#45;&gt;ShoppingCart&#45;Service</title>
<path fill="none" stroke="black" d="M287.36,-437C312.05,-437 343.95,-437 374.55,-437"/>
<polygon fill="black" stroke="black" points="374.24,-440.5 384.24,-437 374.24,-433.5 374.24,-440.5"/>
</g>
<!-- Cart&#45;State&#45;Service -->
<g id="node28" class="node">
<title>Cart&#45;State&#45;Service</title>
<ellipse fill="none" stroke="black" cx="759.19" cy="-437" rx="78.99" ry="18"/>
<text text-anchor="middle" x="759.19" y="-431.95" font-family="Times,serif" font-size="14.00">Cart&#45;State&#45;Service</text>
</g>
<!-- ShoppingCart&#45;Service&#45;&gt;Cart&#45;State&#45;Service -->
<g id="edge19" class="edge">
<title>ShoppingCart&#45;Service&#45;&gt;Cart&#45;State&#45;Service</title>
<path fill="none" stroke="black" d="M571.67,-437C602.85,-437 637.63,-437 668.62,-437"/>
<polygon fill="black" stroke="black" points="668.34,-440.5 678.34,-437 668.34,-433.5 668.34,-440.5"/>
</g>
<!-- Checkout&#45;API -->
<g id="node5" class="node">
<title>Checkout&#45;API</title>
<ellipse fill="none" stroke="black" cx="478.72" cy="-302" rx="64.15" ry="18"/>
<text text-anchor="middle" x="478.72" y="-296.95" font-family="Times,serif" font-size="14.00">Checkout&#45;API</text>
</g>
<!-- Checkout&#45;Session&#45;Service -->
<g id="node6" class="node">
<title>Checkout&#45;Session&#45;Service</title>
<ellipse fill="none" stroke="black" cx="759.19" cy="-302" rx="108.16" ry="18"/>
<text text-anchor="middle" x="759.19" y="-296.95" font-family="Times,serif" font-size="14.00">Checkout&#45;Session&#45;Service</text>
</g>
<!-- Checkout&#45;API&#45;&gt;Checkout&#45;Session&#45;Service -->
<g id="edge3" class="edge">
<title>Checkout&#45;API&#45;&gt;Checkout&#45;Session&#45;Service</title>
<path fill="none" stroke="black" d="M543.26,-302C571.81,-302 606.47,-302 639.54,-302"/>
<polygon fill="black" stroke="black" points="639.18,-305.5 649.18,-302 639.18,-298.5 639.18,-305.5"/>
</g>
<!-- Profile&#45;Service -->
<g id="node10" class="node">
<title>Profile&#45;Service</title>
<ellipse fill="none" stroke="black" cx="1052.97" cy="-166" rx="66.71" ry="18"/>
<text text-anchor="middle" x="1052.97" y="-160.95" font-family="Times,serif" font-size="14.00">Profile&#45;Service</text>
</g>
<!-- Checkout&#45;Session&#45;Service&#45;&gt;Profile&#45;Service -->
<g id="edge28" class="edge">
<title>Checkout&#45;Session&#45;Service&#45;&gt;Profile&#45;Service</title>
<path fill="none" stroke="black" d="M840.34,-289.79C861.92,-283.57 884.12,-274.18 901.64,-260 927.62,-238.99 911.16,-214.38 937.64,-194 949.45,-184.91 963.81,-178.73 978.3,-174.54"/>
<polygon fill="black" stroke="black" points="979.09,-177.95 987.91,-172.08 977.35,-171.17 979.09,-177.95"/>
</g>
<!-- Cart&#45;Validation&#45;Service -->
<g id="node33" class="node">
<title>Cart&#45;Validation&#45;Service</title>
<ellipse fill="none" stroke="black" cx="1052.97" cy="-329" rx="98.44" ry="18"/>
<text text-anchor="middle" x="1052.97" y="-323.95" font-family="Times,serif" font-size="14.00">Cart&#45;Validation&#45;Service</text>
</g>
<!-- Checkout&#45;Session&#45;Service&#45;&gt;Cart&#45;Validation&#45;Service -->
<g id="edge27" class="edge">
<title>Checkout&#45;Session&#45;Service&#45;&gt;Cart&#45;Validation&#45;Service</title>
<path fill="none" stroke="black" d="M854.52,-310.73C886.1,-313.65 921.37,-316.91 953.27,-319.87"/>
<polygon fill="black" stroke="black" points="952.61,-323.32 962.89,-320.76 953.26,-316.35 952.61,-323.32"/>
</g>
<!-- Checkout&#45;Pricing&#45;Service -->
<g id="node34" class="node">
<title>Checkout&#45;Pricing&#45;Service</title>
<ellipse fill="none" stroke="black" cx="1052.97" cy="-383" rx="106.63" ry="18"/>
<text text-anchor="middle" x="1052.97" y="-377.95" font-family="Times,serif" font-size="14.00">Checkout&#45;Pricing&#45;Service</text>
</g>
<!-- Checkout&#45;Session&#45;Service&#45;&gt;Checkout&#45;Pricing&#45;Service -->
<g id="edge30" class="edge">
<title>Checkout&#45;Session&#45;Service&#45;&gt;Checkout&#45;Pricing&#45;Service</title>
<path fill="none" stroke="black" d="M810.43,-318.22C845.83,-329.42 894.43,-344.33 937.64,-356 949.98,-359.33 963.12,-362.65 975.94,-365.76"/>
<polygon fill="black" stroke="black" points="975.08,-369.15 985.62,-368.08 976.72,-362.34 975.08,-369.15"/>
</g>
<!-- Checkout&#45;Commit&#45;Service -->
<g id="node36" class="node">
<title>Checkout&#45;Commit&#45;Service</title>
<ellipse fill="none" stroke="black" cx="1052.97" cy="-221" rx="111.23" ry="18"/>
<text text-anchor="middle" x="1052.97" y="-215.95" font-family="Times,serif" font-size="14.00">Checkout&#45;Commit&#45;Service</text>
</g>
<!-- Checkout&#45;Session&#45;Service&#45;&gt;Checkout&#45;Commit&#45;Service -->
<g id="edge34" class="edge">
<title>Checkout&#45;Session&#45;Service&#45;&gt;Checkout&#45;Commit&#45;Service</title>
<path fill="none" stroke="black" d="M815.07,-286.17C841.33,-278.47 873.18,-268.97 901.64,-260 917.73,-254.93 921.42,-252.61 937.64,-248 949.36,-244.67 961.83,-241.43 974.07,-238.41"/>
<polygon fill="black" stroke="black" points="974.85,-241.82 983.74,-236.06 973.2,-235.02 974.85,-241.82"/>
</g>
<!-- Order&#45;API -->
<g id="node7" class="node">
<title>Order&#45;API</title>
<ellipse fill="none" stroke="black" cx="759.19" cy="-53" rx="50.33" ry="18"/>
<text text-anchor="middle" x="759.19" y="-47.95" font-family="Times,serif" font-size="14.00">Order&#45;API</text>
</g>
<!-- Order&#45;History&#45;Service -->
<g id="node8" class="node">
<title>Order&#45;History&#45;Service</title>
<ellipse fill="none" stroke="black" cx="1052.97" cy="-53" rx="93.83" ry="18"/>
<text text-anchor="middle" x="1052.97" y="-47.95" font-family="Times,serif" font-size="14.00">Order&#45;History&#45;Service</text>
</g>
<!-- Order&#45;API&#45;&gt;Order&#45;History&#45;Service -->
<g id="edge4" class="edge">
<title>Order&#45;API&#45;&gt;Order&#45;History&#45;Service</title>
<path fill="none" stroke="black" d="M810.02,-53C847.61,-53 900.52,-53 947.28,-53"/>
<polygon fill="black" stroke="black" points="947.19,-56.5 957.19,-53 947.19,-49.5 947.19,-56.5"/>
</g>
<!-- Order&#45;Booking&#45;Service -->
<g id="node40" class="node">
<title>Order&#45;Booking&#45;Service</title>
<ellipse fill="none" stroke="black" cx="1332.93" cy="-53" rx="97.93" ry="18"/>
<text text-anchor="middle" x="1332.93" y="-47.95" font-family="Times,serif" font-size="14.00">Order&#45;Booking&#45;Service</text>
</g>
<!-- Order&#45;History&#45;Service&#45;&gt;Order&#45;Booking&#45;Service -->
<g id="edge45" class="edge">
<title>Order&#45;History&#45;Service&#45;&gt;Order&#45;Booking&#45;Service</title>
<path fill="none" stroke="black" d="M1147.3,-53C1171.65,-53 1198.09,-53 1223.16,-53"/>
<polygon fill="black" stroke="black" points="1223.06,-56.5 1233.06,-53 1223.06,-49.5 1223.06,-56.5"/>
</g>
<!-- Profile&#45;API -->
<g id="node9" class="node">
<title>Profile&#45;API</title>
<ellipse fill="none" stroke="black" cx="759.19" cy="-166" rx="53.91" ry="18"/>
<text text-anchor="middle" x="759.19" y="-160.95" font-family="Times,serif" font-size="14.00">Profile&#45;API</text>
</g>
<!-- Profile&#45;API&#45;&gt;Profile&#45;Service -->
<g id="edge5" class="edge">
<title>Profile&#45;API&#45;&gt;Profile&#45;Service</title>
<path fill="none" stroke="black" d="M813.37,-166C858.45,-166 923.7,-166 974.57,-166"/>
<polygon fill="black" stroke="black" points="974.34,-169.5 984.34,-166 974.34,-162.5 974.34,-169.5"/>
</g>
<!-- Address&#45;Mgmt&#45;Service -->
<g id="node42" class="node">
<title>Address&#45;Mgmt&#45;Service</title>
<ellipse fill="none" stroke="black" cx="1892.86" cy="-99" rx="98.44" ry="18"/>
<text text-anchor="middle" x="1892.86" y="-93.95" font-family="Times,serif" font-size="14.00">Address&#45;Mgmt&#45;Service</text>
</g>
<!-- Profile&#45;Service&#45;&gt;Address&#45;Mgmt&#45;Service -->
<g id="edge46" class="edge">
<title>Profile&#45;Service&#45;&gt;Address&#45;Mgmt&#45;Service</title>
<path fill="none" stroke="black" d="M1107.43,-155.21C1126.91,-150.56 1148.9,-144.46 1168.3,-137 1185.19,-130.51 1186.8,-122.59 1204.3,-118 1310.43,-90.15 1618.52,-92.49 1783.9,-96.03"/>
<polygon fill="black" stroke="black" points="1783.49,-99.52 1793.56,-96.25 1783.64,-92.53 1783.49,-99.52"/>
</g>
<!-- Seller&#45;API -->
<g id="node11" class="node">
<title>Seller&#45;API</title>
<ellipse fill="none" stroke="black" cx="478.72" cy="-233" rx="50.33" ry="18"/>
<text text-anchor="middle" x="478.72" y="-227.95" font-family="Times,serif" font-size="14.00">Seller&#45;API</text>
</g>
<!-- Seller&#45;Dashboard&#45;Service -->
<g id="node12" class="node">
<title>Seller&#45;Dashboard&#45;Service</title>
<ellipse fill="none" stroke="black" cx="759.19" cy="-233" rx="106.11" ry="18"/>
<text text-anchor="middle" x="759.19" y="-227.95" font-family="Times,serif" font-size="14.00">Seller&#45;Dashboard&#45;Service</text>
</g>
<!-- Seller&#45;API&#45;&gt;Seller&#45;Dashboard&#45;Service -->
<g id="edge6" class="edge">
<title>Seller&#45;API&#45;&gt;Seller&#45;Dashboard&#45;Service</title>
<path fill="none" stroke="black" d="M529.5,-233C560.61,-233 602.06,-233 641.12,-233"/>
<polygon fill="black" stroke="black" points="641.09,-236.5 651.09,-233 641.09,-229.5 641.09,-236.5"/>
</g>
<!-- Listing&#45;Validation&#45;Service -->
<g id="node46" class="node">
<title>Listing&#45;Validation&#45;Service</title>
<ellipse fill="none" stroke="black" cx="1052.97" cy="-275" rx="108.67" ry="18"/>
<text text-anchor="middle" x="1052.97" y="-269.95" font-family="Times,serif" font-size="14.00">Listing&#45;Validation&#45;Service</text>
</g>
<!-- Seller&#45;Dashboard&#45;Service&#45;&gt;Listing&#45;Validation&#45;Service -->
<g id="edge47" class="edge">
<title>Seller&#45;Dashboard&#45;Service&#45;&gt;Listing&#45;Validation&#45;Service</title>
<path fill="none" stroke="black" d="M841.47,-244.7C877.76,-249.92 920.75,-256.11 958.38,-261.53"/>
<polygon fill="black" stroke="black" points="957.46,-264.93 967.86,-262.89 958.46,-258 957.46,-264.93"/>
</g>
<!-- Seller&#45;Order&#45;Service -->
<g id="node50" class="node">
<title>Seller&#45;Order&#45;Service</title>
<ellipse fill="none" stroke="black" cx="1052.97" cy="-110" rx="87.69" ry="18"/>
<text text-anchor="middle" x="1052.97" y="-104.95" font-family="Times,serif" font-size="14.00">Seller&#45;Order&#45;Service</text>
</g>
<!-- Seller&#45;Dashboard&#45;Service&#45;&gt;Seller&#45;Order&#45;Service -->
<g id="edge51" class="edge">
<title>Seller&#45;Dashboard&#45;Service&#45;&gt;Seller&#45;Order&#45;Service</title>
<path fill="none" stroke="black" d="M839.53,-221.01C861.1,-215.07 883.49,-206.22 901.64,-193 924.96,-176.03 914.09,-155.66 937.64,-139 946.8,-132.53 957.26,-127.49 968.06,-123.59"/>
<polygon fill="black" stroke="black" points="969.08,-126.94 977.5,-120.51 966.91,-120.28 969.08,-126.94"/>
</g>
<!-- Review&#45;API -->
<g id="node13" class="node">
<title>Review&#45;API</title>
<ellipse fill="none" stroke="black" cx="242.26" cy="-498" rx="56.98" ry="18"/>
<text text-anchor="middle" x="242.26" y="-492.95" font-family="Times,serif" font-size="14.00">Review&#45;API</text>
</g>
<!-- Review&#45;Service -->
<g id="node14" class="node">
<title>Review&#45;Service</title>
<ellipse fill="none" stroke="black" cx="478.72" cy="-498" rx="69.78" ry="18"/>
<text text-anchor="middle" x="478.72" y="-492.95" font-family="Times,serif" font-size="14.00">Review&#45;Service</text>
</g>
<!-- Review&#45;API&#45;&gt;Review&#45;Service -->
<g id="edge7" class="edge">
<title>Review&#45;API&#45;&gt;Review&#45;Service</title>
<path fill="none" stroke="black" d="M299.72,-498C329.05,-498 365.4,-498 397.59,-498"/>
<polygon fill="black" stroke="black" points="397.27,-501.5 407.27,-498 397.27,-494.5 397.27,-501.5"/>
</g>
<!-- Review&#45;Write&#45;Service -->
<g id="node51" class="node">
<title>Review&#45;Write&#45;Service</title>
<ellipse fill="none" stroke="black" cx="759.19" cy="-498" rx="93.83" ry="18"/>
<text text-anchor="middle" x="759.19" y="-492.95" font-family="Times,serif" font-size="14.00">Review&#45;Write&#45;Service</text>
</g>
<!-- Review&#45;Service&#45;&gt;Review&#45;Write&#45;Service -->
<g id="edge55" class="edge">
<title>Review&#45;Service&#45;&gt;Review&#45;Write&#45;Service</title>
<path fill="none" stroke="black" d="M548.91,-498C580.52,-498 618.65,-498 653.65,-498"/>
<polygon fill="black" stroke="black" points="653.38,-501.5 663.38,-498 653.38,-494.5 653.38,-501.5"/>
</g>
<!-- Search&#45;API -->
<g id="node15" class="node">
<title>Search&#45;API</title>
<ellipse fill="none" stroke="black" cx="53.91" cy="-644" rx="53.91" ry="18"/>
<text text-anchor="middle" x="53.91" y="-638.95" font-family="Times,serif" font-size="14.00">Search&#45;API</text>
</g>
<!-- Product&#45;Search&#45;Service -->
<g id="node16" class="node">
<title>Product&#45;Search&#45;Service</title>
<ellipse fill="none" stroke="black" cx="242.26" cy="-644" rx="98.44" ry="18"/>
<text text-anchor="middle" x="242.26" y="-638.95" font-family="Times,serif" font-size="14.00">Product&#45;Search&#45;Service</text>
</g>
<!-- Search&#45;API&#45;&gt;Product&#45;Search&#45;Service -->
<g id="edge8" class="edge">
<title>Search&#45;API&#45;&gt;Product&#45;Search&#45;Service</title>
<path fill="none" stroke="black" d="M108.31,-644C115.93,-644 123.98,-644 132.2,-644"/>
<polygon fill="black" stroke="black" points="131.98,-647.5 141.98,-644 131.98,-640.5 131.98,-647.5"/>
</g>
<!-- Search&#45;Query&#45;Service -->
<g id="node31" class="node">
<title>Search&#45;Query&#45;Service</title>
<ellipse fill="none" stroke="black" cx="478.72" cy="-644" rx="92.81" ry="18"/>
<text text-anchor="middle" x="478.72" y="-638.95" font-family="Times,serif" font-size="14.00">Search&#45;Query&#45;Service</text>
</g>
<!-- Product&#45;Search&#45;Service&#45;&gt;Search&#45;Query&#45;Service -->
<g id="edge24" class="edge">
<title>Product&#45;Search&#45;Service&#45;&gt;Search&#45;Query&#45;Service</title>
<path fill="none" stroke="black" d="M340.99,-644C352,-644 363.24,-644 374.31,-644"/>
<polygon fill="black" stroke="black" points="374.26,-647.5 384.26,-644 374.26,-640.5 374.26,-647.5"/>
</g>
<!-- Frontend -->
<g id="node17" class="node">
<title>Frontend</title>
<ellipse fill="none" stroke="black" cx="53.91" cy="-698" rx="44.19" ry="18"/>
<text text-anchor="middle" x="53.91" y="-692.95" font-family="Times,serif" font-size="14.00">Frontend</text>
</g>
<!-- Product&#45;Metadata&#45;Service -->
<g id="node19" class="node">
<title>Product&#45;Metadata&#45;Service</title>
<ellipse fill="none" stroke="black" cx="1332.93" cy="-545" rx="108.16" ry="18"/>
<text text-anchor="middle" x="1332.93" y="-539.95" font-family="Times,serif" font-size="14.00">Product&#45;Metadata&#45;Service</text>
</g>
<!-- Catalog&#45;Aggregator&#45;Service&#45;&gt;Product&#45;Metadata&#45;Service -->
<g id="edge10" class="edge">
<title>Catalog&#45;Aggregator&#45;Service&#45;&gt;Product&#45;Metadata&#45;Service</title>
<path fill="none" stroke="black" d="M1127.73,-583.94C1165.06,-576.82 1210.5,-568.15 1249.04,-560.81"/>
<polygon fill="black" stroke="black" points="1249.58,-564.27 1258.75,-558.95 1248.27,-557.39 1249.58,-564.27"/>
</g>
<!-- Product&#45;Image&#45;Service -->
<g id="node20" class="node">
<title>Product&#45;Image&#45;Service</title>
<ellipse fill="none" stroke="black" cx="1332.93" cy="-707" rx="96.9" ry="18"/>
<text text-anchor="middle" x="1332.93" y="-701.95" font-family="Times,serif" font-size="14.00">Product&#45;Image&#45;Service</text>
</g>
<!-- Catalog&#45;Aggregator&#45;Service&#45;&gt;Product&#45;Image&#45;Service -->
<g id="edge11" class="edge">
<title>Catalog&#45;Aggregator&#45;Service&#45;&gt;Product&#45;Image&#45;Service</title>
<path fill="none" stroke="black" d="M1080.81,-615.78C1110.03,-634.38 1158.7,-663.15 1204.3,-680 1217.93,-685.04 1232.74,-689.24 1247.29,-692.72"/>
<polygon fill="black" stroke="black" points="1246.33,-696.09 1256.86,-694.9 1247.89,-689.27 1246.33,-696.09"/>
</g>
<!-- Product&#45;Attribute&#45;Service -->
<g id="node21" class="node">
<title>Product&#45;Attribute&#45;Service</title>
<ellipse fill="none" stroke="black" cx="1332.93" cy="-653" rx="106.63" ry="18"/>
<text text-anchor="middle" x="1332.93" y="-647.95" font-family="Times,serif" font-size="14.00">Product&#45;Attribute&#45;Service</text>
</g>
<!-- Catalog&#45;Aggregator&#45;Service&#45;&gt;Product&#45;Attribute&#45;Service -->
<g id="edge12" class="edge">
<title>Catalog&#45;Aggregator&#45;Service&#45;&gt;Product&#45;Attribute&#45;Service</title>
<path fill="none" stroke="black" d="M1126.28,-612.31C1164.57,-619.88 1211.71,-629.21 1251.2,-637.03"/>
<polygon fill="black" stroke="black" points="1250.41,-640.44 1260.9,-638.95 1251.77,-633.57 1250.41,-640.44"/>
</g>
<!-- Tag&#45;Translation&#45;Service -->
<g id="node22" class="node">
<title>Tag&#45;Translation&#45;Service</title>
<ellipse fill="none" stroke="black" cx="1332.93" cy="-599" rx="101" ry="18"/>
<text text-anchor="middle" x="1332.93" y="-593.95" font-family="Times,serif" font-size="14.00">Tag&#45;Translation&#45;Service</text>
</g>
<!-- Catalog&#45;Aggregator&#45;Service&#45;&gt;Tag&#45;Translation&#45;Service -->
<g id="edge13" class="edge">
<title>Catalog&#45;Aggregator&#45;Service&#45;&gt;Tag&#45;Translation&#45;Service</title>
<path fill="none" stroke="black" d="M1168.63,-598.41C1185.81,-598.47 1203.49,-598.54 1220.6,-598.6"/>
<polygon fill="black" stroke="black" points="1220.22,-602.1 1230.23,-598.63 1220.24,-595.1 1220.22,-602.1"/>
</g>
<!-- Price&#45;Calc&#45;Service -->
<g id="node24" class="node">
<title>Price&#45;Calc&#45;Service</title>
<ellipse fill="none" stroke="black" cx="1332.93" cy="-453" rx="80.52" ry="18"/>
<text text-anchor="middle" x="1332.93" y="-447.95" font-family="Times,serif" font-size="14.00">Price&#45;Calc&#45;Service</text>
</g>
<!-- Catalog&#45;Aggregator&#45;Service&#45;&gt;Price&#45;Calc&#45;Service -->
<g id="edge15" class="edge">
<title>Catalog&#45;Aggregator&#45;Service&#45;&gt;Price&#45;Calc&#45;Service</title>
<path fill="none" stroke="black" d="M1109.59,-581.86C1129.74,-574.03 1151.62,-562.99 1168.3,-548 1192.29,-526.45 1178.6,-504.48 1204.3,-485 1217.24,-475.19 1232.84,-468.36 1248.62,-463.61"/>
<polygon fill="black" stroke="black" points="1249.35,-467.04 1258.08,-461.04 1247.51,-460.28 1249.35,-467.04"/>
</g>
<!-- Inventory&#45;Avail&#45;Service -->
<g id="node26" class="node">
<title>Inventory&#45;Avail&#45;Service</title>
<ellipse fill="none" stroke="black" cx="1614.94" cy="-299" rx="101" ry="18"/>
<text text-anchor="middle" x="1614.94" y="-293.95" font-family="Times,serif" font-size="14.00">Inventory&#45;Avail&#45;Service</text>
</g>
<!-- Catalog&#45;Aggregator&#45;Service&#45;&gt;Inventory&#45;Avail&#45;Service -->
<g id="edge17" class="edge">
<title>Catalog&#45;Aggregator&#45;Service&#45;&gt;Inventory&#45;Avail&#45;Service</title>
<path fill="none" stroke="black" d="M1100.25,-581.24C1121.66,-572.62 1147.01,-561.15 1168.3,-548 1186.02,-537.05 1185.29,-526.51 1204.3,-518 1309.8,-470.8 1372.58,-553.76 1461.57,-480 1499.23,-448.79 1467.59,-414.65 1497.57,-376 1515.48,-352.91 1542.36,-334.48 1565.77,-321.45"/>
<polygon fill="black" stroke="black" points="1567.4,-324.54 1574.56,-316.73 1564.09,-318.37 1567.4,-324.54"/>
</g>
<!-- Tag&#45;Taxonomy&#45;Service -->
<g id="node23" class="node">
<title>Tag&#45;Taxonomy&#45;Service</title>
<ellipse fill="none" stroke="black" cx="1614.94" cy="-599" rx="99.46" ry="18"/>
<text text-anchor="middle" x="1614.94" y="-593.95" font-family="Times,serif" font-size="14.00">Tag&#45;Taxonomy&#45;Service</text>
</g>
<!-- Tag&#45;Translation&#45;Service&#45;&gt;Tag&#45;Taxonomy&#45;Service -->
<g id="edge14" class="edge">
<title>Tag&#45;Translation&#45;Service&#45;&gt;Tag&#45;Taxonomy&#45;Service</title>
<path fill="none" stroke="black" d="M1434.23,-599C1456.89,-599 1481.06,-599 1504.08,-599"/>
<polygon fill="black" stroke="black" points="1503.77,-602.5 1513.77,-599 1503.77,-595.5 1503.77,-602.5"/>
</g>
<!-- Discount&#45;Rule&#45;Service -->
<g id="node25" class="node">
<title>Discount&#45;Rule&#45;Service</title>
<ellipse fill="none" stroke="black" cx="1614.94" cy="-403" rx="95.37" ry="18"/>
<text text-anchor="middle" x="1614.94" y="-397.95" font-family="Times,serif" font-size="14.00">Discount&#45;Rule&#45;Service</text>
</g>
<!-- Price&#45;Calc&#45;Service&#45;&gt;Discount&#45;Rule&#45;Service -->
<g id="edge16" class="edge">
<title>Price&#45;Calc&#45;Service&#45;&gt;Discount&#45;Rule&#45;Service</title>
<path fill="none" stroke="black" d="M1397.12,-441.72C1437.48,-434.51 1490.18,-425.1 1533.51,-417.36"/>
<polygon fill="black" stroke="black" points="1533.88,-420.85 1543.11,-415.65 1532.65,-413.96 1533.88,-420.85"/>
</g>
<!-- Product&#45;Detail&#45;Enrichment&#45;Service&#45;&gt;Catalog&#45;Aggregator&#45;Service -->
<g id="edge57" class="edge">
<title>Product&#45;Detail&#45;Enrichment&#45;Service&#45;&gt;Catalog&#45;Aggregator&#45;Service</title>
<path fill="none" stroke="black" d="M850.12,-566.18C884.72,-571.63 924.27,-577.87 959.14,-583.36"/>
<polygon fill="black" stroke="black" points="958.36,-586.79 968.79,-584.89 959.45,-579.87 958.36,-586.79"/>
</g>
<!-- Review&#45;Read&#45;Service -->
<g id="node52" class="node">
<title>Review&#45;Read&#45;Service</title>
<ellipse fill="none" stroke="black" cx="1052.97" cy="-521" rx="91.78" ry="18"/>
<text text-anchor="middle" x="1052.97" y="-515.95" font-family="Times,serif" font-size="14.00">Review&#45;Read&#45;Service</text>
</g>
<!-- Product&#45;Detail&#45;Enrichment&#45;Service&#45;&gt;Review&#45;Read&#45;Service -->
<g id="edge58" class="edge">
<title>Product&#45;Detail&#45;Enrichment&#45;Service&#45;&gt;Review&#45;Read&#45;Service</title>
<path fill="none" stroke="black" d="M869.67,-540.37C899.51,-537.2 931.51,-533.8 960.25,-530.74"/>
<polygon fill="black" stroke="black" points="960.43,-534.25 970,-529.71 959.69,-527.28 960.43,-534.25"/>
</g>
<!-- Cart&#45;Pricing&#45;Service -->
<g id="node29" class="node">
<title>Cart&#45;Pricing&#45;Service</title>
<ellipse fill="none" stroke="black" cx="1052.97" cy="-437" rx="87.18" ry="18"/>
<text text-anchor="middle" x="1052.97" y="-431.95" font-family="Times,serif" font-size="14.00">Cart&#45;Pricing&#45;Service</text>
</g>
<!-- Cart&#45;State&#45;Service&#45;&gt;Cart&#45;Pricing&#45;Service -->
<g id="edge20" class="edge">
<title>Cart&#45;State&#45;Service&#45;&gt;Cart&#45;Pricing&#45;Service</title>
<path fill="none" stroke="black" d="M838.38,-437C873.87,-437 916.23,-437 953.84,-437"/>
<polygon fill="black" stroke="black" points="953.83,-440.5 963.83,-437 953.83,-433.5 953.83,-440.5"/>
</g>
<!-- Cart&#45;Pricing&#45;Service&#45;&gt;Price&#45;Calc&#45;Service -->
<g id="edge21" class="edge">
<title>Cart&#45;Pricing&#45;Service&#45;&gt;Price&#45;Calc&#45;Service</title>
<path fill="none" stroke="black" d="M1137.37,-441.8C1170.84,-443.73 1209.47,-445.95 1243.44,-447.91"/>
<polygon fill="black" stroke="black" points="1243.07,-451.39 1253.26,-448.47 1243.47,-444.4 1243.07,-451.39"/>
</g>
<!-- Promo&#45;Eval&#45;Service -->
<g id="node30" class="node">
<title>Promo&#45;Eval&#45;Service</title>
<ellipse fill="none" stroke="black" cx="1332.93" cy="-345" rx="86.67" ry="18"/>
<text text-anchor="middle" x="1332.93" y="-339.95" font-family="Times,serif" font-size="14.00">Promo&#45;Eval&#45;Service</text>
</g>
<!-- Cart&#45;Pricing&#45;Service&#45;&gt;Promo&#45;Eval&#45;Service -->
<g id="edge22" class="edge">
<title>Cart&#45;Pricing&#45;Service&#45;&gt;Promo&#45;Eval&#45;Service</title>
<path fill="none" stroke="black" d="M1125.63,-426.8C1140.35,-422.89 1155.31,-417.48 1168.3,-410 1188.46,-398.4 1184,-383.37 1204.3,-372 1216.54,-365.15 1230.33,-360.03 1244.2,-356.21"/>
<polygon fill="black" stroke="black" points="1245,-359.61 1253.85,-353.78 1243.3,-352.83 1245,-359.61"/>
</g>
<!-- Promo&#45;Eval&#45;Service&#45;&gt;Discount&#45;Rule&#45;Service -->
<g id="edge23" class="edge">
<title>Promo&#45;Eval&#45;Service&#45;&gt;Discount&#45;Rule&#45;Service</title>
<path fill="none" stroke="black" d="M1395.73,-357.8C1437.75,-366.5 1493.6,-378.07 1538.28,-387.33"/>
<polygon fill="black" stroke="black" points="1537.4,-390.72 1547.9,-389.32 1538.82,-383.87 1537.4,-390.72"/>
</g>
<!-- Search&#45;Index&#45;Service -->
<g id="node32" class="node">
<title>Search&#45;Index&#45;Service</title>
<ellipse fill="none" stroke="black" cx="759.19" cy="-644" rx="90.76" ry="18"/>
<text text-anchor="middle" x="759.19" y="-638.95" font-family="Times,serif" font-size="14.00">Search&#45;Index&#45;Service</text>
</g>
<!-- Search&#45;Query&#45;Service&#45;&gt;Search&#45;Index&#45;Service -->
<g id="edge25" class="edge">
<title>Search&#45;Query&#45;Service&#45;&gt;Search&#45;Index&#45;Service</title>
<path fill="none" stroke="black" d="M571.67,-644C598.96,-644 629,-644 656.85,-644"/>
<polygon fill="black" stroke="black" points="656.72,-647.5 666.72,-644 656.72,-640.5 656.72,-647.5"/>
</g>
<!-- Search&#45;Index&#45;Service&#45;&gt;Catalog&#45;Aggregator&#45;Service -->
<g id="edge26" class="edge">
<title>Search&#45;Index&#45;Service&#45;&gt;Catalog&#45;Aggregator&#45;Service</title>
<path fill="none" stroke="black" d="M831.57,-632.75C869.97,-626.69 917.79,-619.15 959.07,-612.65"/>
<polygon fill="black" stroke="black" points="959.41,-616.14 968.75,-611.12 958.32,-609.22 959.41,-616.14"/>
</g>
<!-- Cart&#45;Validation&#45;Service&#45;&gt;Promo&#45;Eval&#45;Service -->
<g id="edge29" class="edge">
<title>Cart&#45;Validation&#45;Service&#45;&gt;Promo&#45;Eval&#45;Service</title>
<path fill="none" stroke="black" d="M1147.3,-334.37C1176.4,-336.05 1208.51,-337.9 1237.67,-339.57"/>
<polygon fill="black" stroke="black" points="1237.42,-343.07 1247.6,-340.15 1237.82,-336.08 1237.42,-343.07"/>
</g>
<!-- Checkout&#45;Pricing&#45;Service&#45;&gt;Price&#45;Calc&#45;Service -->
<g id="edge32" class="edge">
<title>Checkout&#45;Pricing&#45;Service&#45;&gt;Price&#45;Calc&#45;Service</title>
<path fill="none" stroke="black" d="M1122.57,-397.01C1137.78,-400.72 1153.71,-405.08 1168.3,-410 1184.89,-415.59 1187.64,-420.6 1204.3,-426 1220.91,-431.38 1239.1,-435.97 1256.4,-439.76"/>
<polygon fill="black" stroke="black" points="1255.63,-443.17 1266.14,-441.82 1257.08,-436.33 1255.63,-443.17"/>
</g>
<!-- Checkout&#45;Pricing&#45;Service&#45;&gt;Promo&#45;Eval&#45;Service -->
<g id="edge33" class="edge">
<title>Checkout&#45;Pricing&#45;Service&#45;&gt;Promo&#45;Eval&#45;Service</title>
<path fill="none" stroke="black" d="M1136.99,-371.65C1172.21,-366.84 1213.19,-361.23 1248.46,-356.41"/>
<polygon fill="black" stroke="black" points="1248.76,-359.9 1258.2,-355.08 1247.82,-352.97 1248.76,-359.9"/>
</g>
<!-- Tax&#45;Calc&#45;Service -->
<g id="node35" class="node">
<title>Tax&#45;Calc&#45;Service</title>
<ellipse fill="none" stroke="black" cx="1332.93" cy="-399" rx="75.92" ry="18"/>
<text text-anchor="middle" x="1332.93" y="-393.95" font-family="Times,serif" font-size="14.00">Tax&#45;Calc&#45;Service</text>
</g>
<!-- Checkout&#45;Pricing&#45;Service&#45;&gt;Tax&#45;Calc&#45;Service -->
<g id="edge31" class="edge">
<title>Checkout&#45;Pricing&#45;Service&#45;&gt;Tax&#45;Calc&#45;Service</title>
<path fill="none" stroke="black" d="M1154.32,-388.78C1184.8,-390.53 1217.97,-392.44 1247.3,-394.13"/>
<polygon fill="black" stroke="black" points="1247.07,-397.62 1257.25,-394.7 1247.47,-390.63 1247.07,-397.62"/>
</g>
<!-- Inventory&#45;Reserve&#45;Service -->
<g id="node37" class="node">
<title>Inventory&#45;Reserve&#45;Service</title>
<ellipse fill="none" stroke="black" cx="1332.93" cy="-253" rx="110.21" ry="18"/>
<text text-anchor="middle" x="1332.93" y="-247.95" font-family="Times,serif" font-size="14.00">Inventory&#45;Reserve&#45;Service</text>
</g>
<!-- Checkout&#45;Commit&#45;Service&#45;&gt;Inventory&#45;Reserve&#45;Service -->
<g id="edge35" class="edge">
<title>Checkout&#45;Commit&#45;Service&#45;&gt;Inventory&#45;Reserve&#45;Service</title>
<path fill="none" stroke="black" d="M1144.99,-231.48C1172.26,-234.62 1202.35,-238.08 1230.26,-241.3"/>
<polygon fill="black" stroke="black" points="1229.82,-244.77 1240.16,-242.43 1230.63,-237.81 1229.82,-244.77"/>
</g>
<!-- Payment&#45;Authorization&#45;Service -->
<g id="node38" class="node">
<title>Payment&#45;Authorization&#45;Service</title>
<ellipse fill="none" stroke="black" cx="1332.93" cy="-145" rx="128.63" ry="18"/>
<text text-anchor="middle" x="1332.93" y="-139.95" font-family="Times,serif" font-size="14.00">Payment&#45;Authorization&#45;Service</text>
</g>
<!-- Checkout&#45;Commit&#45;Service&#45;&gt;Payment&#45;Authorization&#45;Service -->
<g id="edge37" class="edge">
<title>Checkout&#45;Commit&#45;Service&#45;&gt;Payment&#45;Authorization&#45;Service</title>
<path fill="none" stroke="black" d="M1125.11,-206.94C1139.65,-203.14 1154.66,-198.51 1168.3,-193 1185.47,-186.06 1187.02,-178.67 1204.3,-172 1214.6,-168.03 1225.61,-164.58 1236.68,-161.62"/>
<polygon fill="black" stroke="black" points="1237.44,-165.04 1246.28,-159.18 1235.72,-158.25 1237.44,-165.04"/>
</g>
<!-- Checkout&#45;Commit&#45;Service&#45;&gt;Order&#45;Booking&#45;Service -->
<g id="edge39" class="edge">
<title>Checkout&#45;Commit&#45;Service&#45;&gt;Order&#45;Booking&#45;Service</title>
<path fill="none" stroke="black" d="M1138.89,-209.31C1149.5,-205.32 1159.65,-200.02 1168.3,-193 1197.01,-169.7 1178.46,-144.45 1204.3,-118 1223.37,-98.48 1249.55,-83.74 1273.24,-73.29"/>
<polygon fill="black" stroke="black" points="1274.32,-76.63 1282.16,-69.51 1271.59,-70.18 1274.32,-76.63"/>
</g>
<!-- Inventory&#45;Reserve&#45;Service&#45;&gt;Inventory&#45;Avail&#45;Service -->
<g id="edge36" class="edge">
<title>Inventory&#45;Reserve&#45;Service&#45;&gt;Inventory&#45;Avail&#45;Service</title>
<path fill="none" stroke="black" d="M1412.3,-265.87C1448.37,-271.8 1491.26,-278.85 1528.19,-284.91"/>
<polygon fill="black" stroke="black" points="1527.52,-288.35 1537.95,-286.52 1528.65,-281.44 1527.52,-288.35"/>
</g>
<!-- Payment&#45;Settlement&#45;Service -->
<g id="node39" class="node">
<title>Payment&#45;Settlement&#45;Service</title>
<ellipse fill="none" stroke="black" cx="1614.94" cy="-145" rx="117.37" ry="18"/>
<text text-anchor="middle" x="1614.94" y="-139.95" font-family="Times,serif" font-size="14.00">Payment&#45;Settlement&#45;Service</text>
</g>
<!-- Payment&#45;Authorization&#45;Service&#45;&gt;Payment&#45;Settlement&#45;Service -->
<g id="edge38" class="edge">
<title>Payment&#45;Authorization&#45;Service&#45;&gt;Payment&#45;Settlement&#45;Service</title>
<path fill="none" stroke="black" d="M1462.06,-145C1470.08,-145 1478.16,-145 1486.18,-145"/>
<polygon fill="black" stroke="black" points="1485.97,-148.5 1495.97,-145 1485.97,-141.5 1485.97,-148.5"/>
</g>
<!-- Shipping&#45;Estimator&#45;Service -->
<g id="node41" class="node">
<title>Shipping&#45;Estimator&#45;Service</title>
<ellipse fill="none" stroke="black" cx="1614.94" cy="-53" rx="114.3" ry="18"/>
<text text-anchor="middle" x="1614.94" y="-47.95" font-family="Times,serif" font-size="14.00">Shipping&#45;Estimator&#45;Service</text>
</g>
<!-- Order&#45;Booking&#45;Service&#45;&gt;Shipping&#45;Estimator&#45;Service -->
<g id="edge40" class="edge">
<title>Order&#45;Booking&#45;Service&#45;&gt;Shipping&#45;Estimator&#45;Service</title>
<path fill="none" stroke="black" d="M1431.08,-53C1449.83,-53 1469.72,-53 1489.2,-53"/>
<polygon fill="black" stroke="black" points="1489.1,-56.5 1499.1,-53 1489.1,-49.5 1489.1,-56.5"/>
</g>
<!-- Shipping&#45;Estimator&#45;Service&#45;&gt;Address&#45;Mgmt&#45;Service -->
<g id="edge41" class="edge">
<title>Shipping&#45;Estimator&#45;Service&#45;&gt;Address&#45;Mgmt&#45;Service</title>
<path fill="none" stroke="black" d="M1695.01,-66.18C1730.37,-72.08 1772.08,-79.03 1807.98,-85.02"/>
<polygon fill="black" stroke="black" points="1806.99,-88.4 1817.43,-86.59 1808.14,-81.49 1806.99,-88.4"/>
</g>
<!-- Shipping&#45;Rule&#45;Engine&#45;Service -->
<g id="node43" class="node">
<title>Shipping&#45;Rule&#45;Engine&#45;Service</title>
<ellipse fill="none" stroke="black" cx="1892.86" cy="-45" rx="124.54" ry="18"/>
<text text-anchor="middle" x="1892.86" y="-39.95" font-family="Times,serif" font-size="14.00">Shipping&#45;Rule&#45;Engine&#45;Service</text>
</g>
<!-- Shipping&#45;Estimator&#45;Service&#45;&gt;Shipping&#45;Rule&#45;Engine&#45;Service -->
<g id="edge42" class="edge">
<title>Shipping&#45;Estimator&#45;Service&#45;&gt;Shipping&#45;Rule&#45;Engine&#45;Service</title>
<path fill="none" stroke="black" d="M1727.77,-49.76C1738.08,-49.46 1748.6,-49.15 1759.07,-48.85"/>
<polygon fill="black" stroke="black" points="1759,-52.35 1768.9,-48.57 1758.8,-45.36 1759,-52.35"/>
</g>
<!-- Geo&#45;Region&#45;Service -->
<g id="node44" class="node">
<title>Geo&#45;Region&#45;Service</title>
<ellipse fill="none" stroke="black" cx="2141.09" cy="-72" rx="86.67" ry="18"/>
<text text-anchor="middle" x="2141.09" y="-66.95" font-family="Times,serif" font-size="14.00">Geo&#45;Region&#45;Service</text>
</g>
<!-- Shipping&#45;Rule&#45;Engine&#45;Service&#45;&gt;Geo&#45;Region&#45;Service -->
<g id="edge43" class="edge">
<title>Shipping&#45;Rule&#45;Engine&#45;Service&#45;&gt;Geo&#45;Region&#45;Service</title>
<path fill="none" stroke="black" d="M1993.65,-55.94C2013.06,-58.07 2033.28,-60.29 2052.27,-62.37"/>
<polygon fill="black" stroke="black" points="2051.77,-65.84 2062.1,-63.45 2052.54,-58.88 2051.77,-65.84"/>
</g>
<!-- Carrier&#45;Cost&#45;Service -->
<g id="node45" class="node">
<title>Carrier&#45;Cost&#45;Service</title>
<ellipse fill="none" stroke="black" cx="2141.09" cy="-18" rx="87.69" ry="18"/>
<text text-anchor="middle" x="2141.09" y="-12.95" font-family="Times,serif" font-size="14.00">Carrier&#45;Cost&#45;Service</text>
</g>
<!-- Shipping&#45;Rule&#45;Engine&#45;Service&#45;&gt;Carrier&#45;Cost&#45;Service -->
<g id="edge44" class="edge">
<title>Shipping&#45;Rule&#45;Engine&#45;Service&#45;&gt;Carrier&#45;Cost&#45;Service</title>
<path fill="none" stroke="black" d="M1993.65,-34.06C2012.84,-31.95 2032.81,-29.76 2051.61,-27.7"/>
<polygon fill="black" stroke="black" points="2051.78,-31.2 2061.34,-26.64 2051.01,-24.25 2051.78,-31.2"/>
</g>
<!-- Listing&#45;Validation&#45;Service&#45;&gt;Price&#45;Calc&#45;Service -->
<g id="edge54" class="edge">
<title>Listing&#45;Validation&#45;Service&#45;&gt;Price&#45;Calc&#45;Service</title>
<path fill="none" stroke="black" d="M1142.28,-285.55C1151.87,-289.56 1160.83,-294.9 1168.3,-302 1209.89,-341.54 1162.25,-386.95 1204.3,-426 1215.01,-435.95 1228.44,-442.6 1242.52,-446.97"/>
<polygon fill="black" stroke="black" points="1241.37,-450.29 1251.93,-449.51 1243.18,-443.53 1241.37,-450.29"/>
</g>
<!-- Listing&#45;Validation&#45;Service&#45;&gt;Inventory&#45;Avail&#45;Service -->
<g id="edge53" class="edge">
<title>Listing&#45;Validation&#45;Service&#45;&gt;Inventory&#45;Avail&#45;Service</title>
<path fill="none" stroke="black" d="M1158.64,-279.49C1257.4,-283.72 1404.85,-290.04 1504.99,-294.33"/>
<polygon fill="black" stroke="black" points="1504.69,-297.82 1514.84,-294.75 1504.99,-290.83 1504.69,-297.82"/>
</g>
<!-- Listing&#45;Normalization&#45;Service -->
<g id="node47" class="node">
<title>Listing&#45;Normalization&#45;Service</title>
<ellipse fill="none" stroke="black" cx="1332.93" cy="-199" rx="124.54" ry="18"/>
<text text-anchor="middle" x="1332.93" y="-193.95" font-family="Times,serif" font-size="14.00">Listing&#45;Normalization&#45;Service</text>
</g>
<!-- Listing&#45;Validation&#45;Service&#45;&gt;Listing&#45;Normalization&#45;Service -->
<g id="edge48" class="edge">
<title>Listing&#45;Validation&#45;Service&#45;&gt;Listing&#45;Normalization&#45;Service</title>
<path fill="none" stroke="black" d="M1126.72,-261.47C1140.77,-257.85 1155.19,-253.39 1168.3,-248 1185.64,-240.87 1186.87,-232.93 1204.3,-226 1214.64,-221.89 1225.71,-218.36 1236.85,-215.34"/>
<polygon fill="black" stroke="black" points="1237.7,-218.74 1246.52,-212.87 1235.97,-211.96 1237.7,-218.74"/>
</g>
<!-- Listing&#45;Image&#45;Proc&#45;Service -->
<g id="node48" class="node">
<title>Listing&#45;Image&#45;Proc&#45;Service</title>
<ellipse fill="none" stroke="black" cx="1614.94" cy="-199" rx="114.3" ry="18"/>
<text text-anchor="middle" x="1614.94" y="-193.95" font-family="Times,serif" font-size="14.00">Listing&#45;Image&#45;Proc&#45;Service</text>
</g>
<!-- Listing&#45;Normalization&#45;Service&#45;&gt;Listing&#45;Image&#45;Proc&#45;Service -->
<g id="edge49" class="edge">
<title>Listing&#45;Normalization&#45;Service&#45;&gt;Listing&#45;Image&#45;Proc&#45;Service</title>
<path fill="none" stroke="black" d="M1457.97,-199C1468.18,-199 1478.49,-199 1488.71,-199"/>
<polygon fill="black" stroke="black" points="1488.66,-202.5 1498.66,-199 1488.66,-195.5 1488.66,-202.5"/>
</g>
<!-- Listing&#45;Persist&#45;Service -->
<g id="node49" class="node">
<title>Listing&#45;Persist&#45;Service</title>
<ellipse fill="none" stroke="black" cx="1892.86" cy="-199" rx="95.37" ry="18"/>
<text text-anchor="middle" x="1892.86" y="-193.95" font-family="Times,serif" font-size="14.00">Listing&#45;Persist&#45;Service</text>
</g>
<!-- Listing&#45;Image&#45;Proc&#45;Service&#45;&gt;Listing&#45;Persist&#45;Service -->
<g id="edge50" class="edge">
<title>Listing&#45;Image&#45;Proc&#45;Service&#45;&gt;Listing&#45;Persist&#45;Service</title>
<path fill="none" stroke="black" d="M1729.36,-199C1748.07,-199 1767.4,-199 1785.92,-199"/>
<polygon fill="black" stroke="black" points="1785.82,-202.5 1795.82,-199 1785.82,-195.5 1785.82,-202.5"/>
</g>
<!-- Seller&#45;Order&#45;Service&#45;&gt;Order&#45;Booking&#45;Service -->
<g id="edge52" class="edge">
<title>Seller&#45;Order&#45;Service&#45;&gt;Order&#45;Booking&#45;Service</title>
<path fill="none" stroke="black" d="M1116.35,-97.21C1157.29,-88.81 1211.11,-77.78 1254.74,-68.83"/>
<polygon fill="black" stroke="black" points="1255.31,-72.29 1264.4,-66.85 1253.9,-65.43 1255.31,-72.29"/>
</g>
<!-- Review&#45;Write&#45;Service&#45;&gt;Review&#45;Read&#45;Service -->
<g id="edge56" class="edge">
<title>Review&#45;Write&#45;Service&#45;&gt;Review&#45;Read&#45;Service</title>
<path fill="none" stroke="black" d="M846.55,-504.81C880.9,-507.51 920.55,-510.64 955.81,-513.42"/>
<polygon fill="black" stroke="black" points="955.34,-516.89 965.58,-514.19 955.89,-509.92 955.34,-516.89"/>
</g>
</g>
</svg>
