<?xml version="1.0" encoding="utf-8" standalone="no"?>
<!DOCTYPE svg PUBLIC "-//W3C//DTD SVG 1.1//EN"
  "http://www.w3.org/Graphics/SVG/1.1/DTD/svg11.dtd">
<svg xmlns:xlink="http://www.w3.org/1999/xlink" width="239.76pt" height="84.24pt" viewBox="0 0 239.76 84.24" xmlns="http://www.w3.org/2000/svg" version="1.1">
 <metadata>
  <rdf:RDF xmlns:dc="http://purl.org/dc/elements/1.1/" xmlns:cc="http://creativecommons.org/ns#" xmlns:rdf="http://www.w3.org/1999/02/22-rdf-syntax-ns#">
   <cc:Work>
    <dc:type rdf:resource="http://purl.org/dc/dcmitype/StillImage"/>
    <dc:date>2026-09-24T01:49:38.005011</dc:date>
    <dc:format>image/svg+xml</dc:format>
    <dc:creator>
     <cc:Agent>
      <dc:title>Matplotlib v3.10.9, https://matplotlib.org/</dc:title>
     </cc:Agent>
    </dc:creator>
   </cc:Work>
  </rdf:RDF>
 </metadata>
 <defs>
  <style type="text/css">*{stroke-linejoin: round; stroke-linecap: butt}</style>
 </defs>
 <g id="figure_1">
  <g id="patch_1">
   <path d="M 0 84.24 
L 239.76 84.24 
L 239.76 0 
L 0 0 
z
" style="fill: #ffffff"/>
  </g>
  <g id="axes_1">
   <g id="patch_2">
    <path d="M 28.7712 59.76 
L 113.077054 59.76 
L 113.077054 12.24 
L 28.7712 12.24 
z
" style="fill: #ffffff"/>
   </g>
   <g id="matplotlib.axis_1">
    <g id="xtick_1">
     <g id="line2d_1">
      <path d="M 28.7712 59.76 
L 28.7712 12.24 
" clip-path="url(#p81a1eb4145)" style="fill: none; stroke: #b0b0b0; stroke-opacity: 0.35; stroke-width: 0.3; stroke-linecap: square"/>
     </g>
     <g id="line2d_2">
      <defs>
       <path id="m22cdb99114" d="M 0 0 
L 0 2 
" style="stroke: #000000; stroke-width: 0.6"/>
      </defs>
      <g>
       <use xlink:href="#m22cdb99114" x="28.7712" y="59.76" style="stroke: #000000; stroke-width: 0.6"/>
      </g>
     </g>
     <g id="text_1">
      <text style="font-size: 8px; font-family: 'DejaVu Sans', 'Bitstream Vera Sans', 'Computer Modern Sans Serif', 'Lucida Grande', 'Verdana', 'Geneva', 'Lucid', 'Arial', 'Helvetica', 'Avant Garde', sans-serif; text-anchor: middle" x="28.7712" y="69.33875" transform="rotate(-0 28.7712 69.33875)">0</text>
     </g>
    </g>
    <g id="xtick_2">
     <g id="line2d_3">
      <path d="M 51.076713 59.76 
L 51.076713 12.24 
" clip-path="url(#p81a1eb4145)" style="fill: none; stroke: #b0b0b0; stroke-opacity: 0.35; stroke-width: 0.3; stroke-linecap: square"/>
     </g>
     <g id="line2d_4">
      <g>
       <use xlink:href="#m22cdb99114" x="51.076713" y="59.76" style="stroke: #000000; stroke-width: 0.6"/>
      </g>
     </g>
     <g id="text_2">
      <text style="font-size: 8px; font-family: 'DejaVu Sans', 'Bitstream Vera Sans', 'Computer Modern Sans Serif', 'Lucida Grande', 'Verdana', 'Geneva', 'Lucid', 'Arial', 'Helvetica', 'Avant Garde', sans-serif; text-anchor: middle" x="51.076713" y="69.33875" transform="rotate(-0 51.076713 69.33875)">5</text>
     </g>
    </g>
    <g id="xtick_3">
     <g id="line2d_5">
      <path d="M 73.382227 59.76 
L 73.382227 12.24 
" clip-path="url(#p81a1eb4145)" style="fill: none; stroke: #b0b0b0; stroke-opacity: 0.35; stroke-width: 0.3; stroke-linecap: square"/>
     </g>
     <g id="line2d_6">
      <g>
       <use xlink:href="#m22cdb99114" x="73.382227" y="59.76" style="stroke: #000000; stroke-width: 0.6"/>
      </g>
     </g>
     <g id="text_3">
      <text style="font-size: 8px; font-family: 'DejaVu Sans', 'Bitstream Vera Sans', 'Computer Modern Sans Serif', 'Lucida Grande', 'Verdana', 'Geneva', 'Lucid', 'Arial', 'Helvetica', 'Avant Garde', sans-serif; text-anchor: middle" x="73.382227" y="69.33875" transform="rotate(-0 73.382227 69.33875)">10</text>
     </g>
    </g>
    <g id="xtick_4">
     <g id="line2d_7">
      <path d="M 95.68774 59.76 
L 95.68774 12.24 
" clip-path="url(#p81a1eb4145)" style="fill: none; stroke: #b0b0b0; stroke-opacity: 0.35; stroke-width: 0.3; stroke-linecap: square"/>
     </g>
     <g id="line2d_8">
      <g>
       <use xlink:href="#m22cdb99114" x="95.68774" y="59.76" style="stroke: #000000; stroke-width: 0.6"/>
      </g>
     </g>
     <g id="text_4">
      <text style="font-size: 8px; font-family: 'DejaVu Sans', 'Bitstream Vera Sans', 'Computer Modern Sans Serif', 'Lucida Grande', 'Verdana', 'Geneva', 'Lucid', 'Arial', 'Helvetica', 'Avant Garde', sans-serif; text-anchor: middle" x="95.68774" y="69.33875" transform="rotate(-0 95.68774 69.33875)">15</text>
     </g>
    </g>
   </g>
   <g id="matplotlib.axis_2">
    <g id="ytick_1">
     <g id="line2d_9">
      <path d="M 28.7712 59.76 
L 113.077054 59.76 
" clip-path="url(#p81a1eb4145)" style="fill: none; stroke: #b0b0b0; stroke-opacity: 0.35; stroke-width: 0.3; stroke-linecap: square"/>
     </g>
     <g id="line2d_10">
      <defs>
       <path id="m10795bc94c" d="M 0 0 
L -2 0 
" style="stroke: #000000; stroke-width: 0.6"/>
      </defs>
      <g>
       <use xlink:href="#m10795bc94c" x="28.7712" y="59.76" style="stroke: #000000; stroke-width: 0.6"/>
      </g>
     </g>
     <g id="text_5">
      <text style="font-size: 8px; font-family: 'DejaVu Sans', 'Bitstream Vera Sans', 'Computer Modern Sans Serif', 'Lucida Grande', 'Verdana', 'Geneva', 'Lucid', 'Arial', 'Helvetica', 'Avant Garde', sans-serif; text-anchor: end" x="25.2712" y="62.799375" transform="rotate(-0 25.2712 62.799375)">0</text>
     </g>
    </g>
    <g id="ytick_2">
     <g id="line2d_11">
      <path d="M 28.7712 43.92 
L 113.077054 43.92 
" clip-path="url(#p81a1eb4145)" style="fill: none; stroke: #b0b0b0; stroke-opacity: 0.35; stroke-width: 0.3; stroke-linecap: square"/>
     </g>
     <g id="line2d_12">
      <g>
       <use xlink:href="#m10795bc94c" x="28.7712" y="43.92" style="stroke: #000000; stroke-width: 0.6"/>
      </g>
     </g>
     <g id="text_6">
      <text style="font-size: 8px; font-family: 'DejaVu Sans', 'Bitstream Vera Sans', 'Computer Modern Sans Serif', 'Lucida Grande', 'Verdana', 'Geneva', 'Lucid', 'Arial', 'Helvetica', 'Avant Garde', sans-serif; text-anchor: end" x="25.2712" y="46.959375" transform="rotate(-0 25.2712 46.959375)">20</text>
     </g>
    </g>
    <g id="ytick_3">
     <g id="line2d_13">
      <path d="M 28.7712 28.08 
L 113.077054 28.08 
" clip-path="url(#p81a1eb4145)" style="fill: none; stroke: #b0b0b0; stroke-opacity: 0.35; stroke-width: 0.3; stroke-linecap: square"/>
     </g>
     <g id="line2d_14">
      <g>
       <use xlink:href="#m10795bc94c" x="28.7712" y="28.08" style="stroke: #000000; stroke-width: 0.6"/>
      </g>
     </g>
     <g id="text_7">
      <text style="font-size: 8px; font-family: 'DejaVu Sans', 'Bitstream Vera Sans', 'Computer Modern Sans Serif', 'Lucida Grande', 'Verdana', 'Geneva', 'Lucid', 'Arial', 'Helvetica', 'Avant Garde', sans-serif; text-anchor: end" x="25.2712" y="31.119375" transform="rotate(-0 25.2712 31.119375)">40</text>
     </g>
    </g>
    <g id="ytick_4">
     <g id="line2d_15">
      <path d="M 28.7712 12.24 
L 113.077054 12.24 
" clip-path="url(#p81a1eb4145)" style="fill: none; stroke: #b0b0b0; stroke-opacity: 0.35; stroke-width: 0.3; stroke-linecap: square"/>
     </g>
     <g id="line2d_16">
      <g>
       <use xlink:href="#m10795bc94c" x="28.7712" y="12.24" style="stroke: #000000; stroke-width: 0.6"/>
      </g>
     </g>
     <g id="text_8">
      <text style="font-size: 8px; font-family: 'DejaVu Sans', 'Bitstream Vera Sans', 'Computer Modern Sans Serif', 'Lucida Grande', 'Verdana', 'Geneva', 'Lucid', 'Arial', 'Helvetica', 'Avant Garde', sans-serif; text-anchor: end" x="25.2712" y="15.279375" transform="rotate(-0 25.2712 15.279375)">60</text>
     </g>
    </g>
    <g id="text_9">
     <text style="font-size: 8px; font-family: 'DejaVu Sans', 'Bitstream Vera Sans', 'Computer Modern Sans Serif', 'Lucida Grande', 'Verdana', 'Geneva', 'Lucid', 'Arial', 'Helvetica', 'Avant Garde', sans-serif; text-anchor: middle" x="11.92745" y="36" transform="rotate(-90 11.92745 36)">mean (ms)</text>
    </g>
   </g>
   <g id="line2d_17">
    <path clip-path="url(#p81a1eb4145)" style="fill: none; stroke-dasharray: 0.8,1.32; stroke-dashoffset: 0; stroke: #7a7a7a; stroke-opacity: 0.3; stroke-width: 0.8"/>
    <defs>
     <path id="maa789fcc9e" d="M 0 0.7 
C 0.185642 0.7 0.363706 0.626244 0.494975 0.494975 
C 0.626244 0.363706 0.7 0.185642 0.7 0 
C 0.7 -0.185642 0.626244 -0.363706 0.494975 -0.494975 
C 0.363706 -0.626244 0.185642 -0.7 0 -0.7 
C -0.185642 -0.7 -0.363706 -0.626244 -0.494975 -0.494975 
C -0.626244 -0.363706 -0.7 -0.185642 -0.7 0 
C -0.7 0.185642 -0.626244 0.363706 -0.494975 0.494975 
C -0.363706 0.626244 -0.185642 0.7 0 0.7 
z
"/>
    </defs>
    <g clip-path="url(#p81a1eb4145)"/>
   </g>
   <g id="line2d_18">
    <path clip-path="url(#p81a1eb4145)" style="fill: none; stroke: #222222; stroke-opacity: 0.3; stroke-width: 0.8; stroke-linecap: square"/>
    <defs>
     <path id="m6b4d230e25" d="M 0 0.7 
C 0.185642 0.7 0.363706 0.626244 0.494975 0.494975 
C 0.626244 0.363706 0.7 0.185642 0.7 0 
C 0.7 -0.185642 0.626244 -0.363706 0.494975 -0.494975 
C 0.363706 -0.626244 0.185642 -0.7 0 -0.7 
C -0.185642 -0.7 -0.363706 -0.626244 -0.494975 -0.494975 
C -0.626244 -0.363706 -0.7 -0.185642 -0.7 0 
C -0.7 0.185642 -0.626244 0.363706 -0.494975 0.494975 
C -0.363706 0.626244 -0.185642 0.7 0 0.7 
z
"/>
    </defs>
    <g clip-path="url(#p81a1eb4145)"/>
   </g>
   <g id="line2d_19">
    <path clip-path="url(#p81a1eb4145)" style="fill: none; stroke: #2878b5; stroke-opacity: 0.3; stroke-width: 0.8; stroke-linecap: square"/>
    <defs>
     <path id="mc776447042" d="M 0 0.7 
C 0.185642 0.7 0.363706 0.626244 0.494975 0.494975 
C 0.626244 0.363706 0.7 0.185642 0.7 0 
C 0.7 -0.185642 0.626244 -0.363706 0.494975 -0.494975 
C 0.363706 -0.626244 0.185642 -0.7 0 -0.7 
C -0.185642 -0.7 -0.363706 -0.626244 -0.494975 -0.494975 
C -0.626244 -0.363706 -0.7 -0.185642 -0.7 0 
C -0.7 0.185642 -0.626244 0.363706 -0.494975 0.494975 
C -0.363706 0.626244 -0.185642 0.7 0 0.7 
z
"/>
    </defs>
    <g clip-path="url(#p81a1eb4145)"/>
   </g>
   <g id="line2d_20">
    <path clip-path="url(#p81a1eb4145)" style="fill: none; stroke: #d36b23; stroke-opacity: 0.3; stroke-width: 0.8; stroke-linecap: square"/>
    <defs>
     <path id="mf0cd095ed5" d="M 0 0.7 
C 0.185642 0.7 0.363706 0.626244 0.494975 0.494975 
C 0.626244 0.363706 0.7 0.185642 0.7 0 
C 0.7 -0.185642 0.626244 -0.363706 0.494975 -0.494975 
C 0.363706 -0.626244 0.185642 -0.7 0 -0.7 
C -0.185642 -0.7 -0.363706 -0.626244 -0.494975 -0.494975 
C -0.626244 -0.363706 -0.7 -0.185642 -0.7 0 
C -0.7 0.185642 -0.626244 0.363706 -0.494975 0.494975 
C -0.363706 0.626244 -0.185642 0.7 0 0.7 
z
"/>
    </defs>
    <g clip-path="url(#p81a1eb4145)"/>
   </g>
   <g id="line2d_21">
    <path clip-path="url(#p81a1eb4145)" style="fill: none; stroke: #33945b; stroke-opacity: 0.3; stroke-width: 0.8; stroke-linecap: square"/>
    <defs>
     <path id="m43c2752081" d="M 0 0.7 
C 0.185642 0.7 0.363706 0.626244 0.494975 0.494975 
C 0.626244 0.363706 0.7 0.185642 0.7 0 
C 0.7 -0.185642 0.626244 -0.363706 0.494975 -0.494975 
C 0.363706 -0.626244 0.185642 -0.7 0 -0.7 
C -0.185642 -0.7 -0.363706 -0.626244 -0.494975 -0.494975 
C -0.626244 -0.363706 -0.7 -0.185642 -0.7 0 
C -0.7 0.185642 -0.626244 0.363706 -0.494975 0.494975 
C -0.363706 0.626244 -0.185642 0.7 0 0.7 
z
"/>
    </defs>
    <g clip-path="url(#p81a1eb4145)"/>
   </g>
   <g id="patch_3">
    <path d="M 28.7712 59.76 
L 28.7712 12.24 
" style="fill: none; stroke: #000000; stroke-width: 0.6; stroke-linejoin: miter; stroke-linecap: square"/>
   </g>
   <g id="patch_4">
    <path d="M 28.7712 59.76 
L 113.077054 59.76 
" style="fill: none; stroke: #000000; stroke-width: 0.6; stroke-linejoin: miter; stroke-linecap: square"/>
   </g>
   <g id="line2d_22">
    <path d="M 30.999967 57.722184 
L 33.224986 57.726144 
L 35.455582 57.368952 
L 37.652229 56.92464 
L 39.885234 56.094624 
L 41.93578 56.27916 
L 44.185603 57.513096 
L 46.489183 57.370536 
L 48.650096 57.224808 
L 50.897734 57.269952 
L 52.973351 57.279456 
L 55.024298 57.450528 
L 56.893054 57.372912 
L 59.034071 57.143232 
L 61.859421 56.702088 
L 64.149038 56.538144 
L 66.434327 56.240352 
L 68.708597 55.913256 
L 70.875533 54.935136 
L 73.128256 55.499832 
L 75.377321 56.08908 
L 77.607738 55.19412 
L 79.787433 55.537848 
L 82.152264 55.433304 
L 84.440185 47.90376 
L 86.606987 49.521024 
L 88.884112 49.208184 
L 91.123095 46.741896 
L 93.41918 42.88248 
L 95.695056 43.775856 
L 97.905354 41.316696 
L 100.084692 41.14404 
L 102.418205 36.880704 
L 104.545081 34.771608 
L 106.856646 28.731816 
L 109.085591 21.340872 
L 109.107091 -1 
" clip-path="url(#p81a1eb4145)" style="fill: none; stroke-dasharray: 1.1,1.815; stroke-dashoffset: 0; stroke: #7a7a7a; stroke-width: 1.1"/>
    <defs>
     <path id="me60193a516" d="M 0 0.8 
C 0.212162 0.8 0.415664 0.715707 0.565685 0.565685 
C 0.715707 0.415664 0.8 0.212162 0.8 0 
C 0.8 -0.212162 0.715707 -0.415664 0.565685 -0.565685 
C 0.415664 -0.715707 0.212162 -0.8 0 -0.8 
C -0.212162 -0.8 -0.415664 -0.715707 -0.565685 -0.565685 
C -0.715707 -0.415664 -0.8 -0.212162 -0.8 0 
C -0.8 0.212162 -0.715707 0.415664 -0.565685 0.565685 
C -0.415664 0.715707 -0.212162 0.8 0 0.8 
z
"/>
    </defs>
    <g clip-path="url(#p81a1eb4145)">
     <use xlink:href="#me60193a516" x="30.999967" y="57.722184" style="fill: #7a7a7a"/>
     <use xlink:href="#me60193a516" x="33.224986" y="57.726144" style="fill: #7a7a7a"/>
     <use xlink:href="#me60193a516" x="35.455582" y="57.368952" style="fill: #7a7a7a"/>
     <use xlink:href="#me60193a516" x="37.652229" y="56.92464" style="fill: #7a7a7a"/>
     <use xlink:href="#me60193a516" x="39.885234" y="56.094624" style="fill: #7a7a7a"/>
     <use xlink:href="#me60193a516" x="41.93578" y="56.27916" style="fill: #7a7a7a"/>
     <use xlink:href="#me60193a516" x="44.185603" y="57.513096" style="fill: #7a7a7a"/>
     <use xlink:href="#me60193a516" x="46.489183" y="57.370536" style="fill: #7a7a7a"/>
     <use xlink:href="#me60193a516" x="48.650096" y="57.224808" style="fill: #7a7a7a"/>
     <use xlink:href="#me60193a516" x="50.897734" y="57.269952" style="fill: #7a7a7a"/>
     <use xlink:href="#me60193a516" x="52.973351" y="57.279456" style="fill: #7a7a7a"/>
     <use xlink:href="#me60193a516" x="55.024298" y="57.450528" style="fill: #7a7a7a"/>
     <use xlink:href="#me60193a516" x="56.893054" y="57.372912" style="fill: #7a7a7a"/>
     <use xlink:href="#me60193a516" x="59.034071" y="57.143232" style="fill: #7a7a7a"/>
     <use xlink:href="#me60193a516" x="61.859421" y="56.702088" style="fill: #7a7a7a"/>
     <use xlink:href="#me60193a516" x="64.149038" y="56.538144" style="fill: #7a7a7a"/>
     <use xlink:href="#me60193a516" x="66.434327" y="56.240352" style="fill: #7a7a7a"/>
     <use xlink:href="#me60193a516" x="68.708597" y="55.913256" style="fill: #7a7a7a"/>
     <use xlink:href="#me60193a516" x="70.875533" y="54.935136" style="fill: #7a7a7a"/>
     <use xlink:href="#me60193a516" x="73.128256" y="55.499832" style="fill: #7a7a7a"/>
     <use xlink:href="#me60193a516" x="75.377321" y="56.08908" style="fill: #7a7a7a"/>
     <use xlink:href="#me60193a516" x="77.607738" y="55.19412" style="fill: #7a7a7a"/>
     <use xlink:href="#me60193a516" x="79.787433" y="55.537848" style="fill: #7a7a7a"/>
     <use xlink:href="#me60193a516" x="82.152264" y="55.433304" style="fill: #7a7a7a"/>
     <use xlink:href="#me60193a516" x="84.440185" y="47.90376" style="fill: #7a7a7a"/>
     <use xlink:href="#me60193a516" x="86.606987" y="49.521024" style="fill: #7a7a7a"/>
     <use xlink:href="#me60193a516" x="88.884112" y="49.208184" style="fill: #7a7a7a"/>
     <use xlink:href="#me60193a516" x="91.123095" y="46.741896" style="fill: #7a7a7a"/>
     <use xlink:href="#me60193a516" x="93.41918" y="42.88248" style="fill: #7a7a7a"/>
     <use xlink:href="#me60193a516" x="95.695056" y="43.775856" style="fill: #7a7a7a"/>
     <use xlink:href="#me60193a516" x="97.905354" y="41.316696" style="fill: #7a7a7a"/>
     <use xlink:href="#me60193a516" x="100.084692" y="41.14404" style="fill: #7a7a7a"/>
     <use xlink:href="#me60193a516" x="102.418205" y="36.880704" style="fill: #7a7a7a"/>
     <use xlink:href="#me60193a516" x="104.545081" y="34.771608" style="fill: #7a7a7a"/>
     <use xlink:href="#me60193a516" x="106.856646" y="28.731816" style="fill: #7a7a7a"/>
     <use xlink:href="#me60193a516" x="109.085591" y="21.340872" style="fill: #7a7a7a"/>
     <use xlink:href="#me60193a516" x="109.107091" y="-1" style="fill: #7a7a7a"/>
    </g>
   </g>
   <g id="line2d_23">
    <path d="M 33.195409 57.490128 
L 37.665613 56.143728 
L 41.932925 56.166696 
L 46.501228 56.420136 
L 50.905987 56.907216 
L 55.00293 56.608632 
L 59.048793 56.189664 
L 64.203999 55.115712 
L 68.69218 53.49528 
L 73.136732 54.143136 
L 77.675146 50.17284 
L 82.155208 43.917624 
L 86.596949 32.126328 
L 91.14433 33.792696 
L 95.615113 6.601752 
L 95.622853 -1 
" clip-path="url(#p81a1eb4145)" style="fill: none; stroke: #222222; stroke-width: 1.1; stroke-linecap: square"/>
    <defs>
     <path id="m5977f9d8ee" d="M 0 0.8 
C 0.212162 0.8 0.415664 0.715707 0.565685 0.565685 
C 0.715707 0.415664 0.8 0.212162 0.8 0 
C 0.8 -0.212162 0.715707 -0.415664 0.565685 -0.565685 
C 0.415664 -0.715707 0.212162 -0.8 0 -0.8 
C -0.212162 -0.8 -0.415664 -0.715707 -0.565685 -0.565685 
C -0.715707 -0.415664 -0.8 -0.212162 -0.8 0 
C -0.8 0.212162 -0.715707 0.415664 -0.565685 0.565685 
C -0.415664 0.715707 -0.212162 0.8 0 0.8 
z
"/>
    </defs>
    <g clip-path="url(#p81a1eb4145)">
     <use xlink:href="#m5977f9d8ee" x="33.195409" y="57.490128" style="fill: #222222"/>
     <use xlink:href="#m5977f9d8ee" x="37.665613" y="56.143728" style="fill: #222222"/>
     <use xlink:href="#m5977f9d8ee" x="41.932925" y="56.166696" style="fill: #222222"/>
     <use xlink:href="#m5977f9d8ee" x="46.501228" y="56.420136" style="fill: #222222"/>
     <use xlink:href="#m5977f9d8ee" x="50.905987" y="56.907216" style="fill: #222222"/>
     <use xlink:href="#m5977f9d8ee" x="55.00293" y="56.608632" style="fill: #222222"/>
     <use xlink:href="#m5977f9d8ee" x="59.048793" y="56.189664" style="fill: #222222"/>
     <use xlink:href="#m5977f9d8ee" x="64.203999" y="55.115712" style="fill: #222222"/>
     <use xlink:href="#m5977f9d8ee" x="68.69218" y="53.49528" style="fill: #222222"/>
     <use xlink:href="#m5977f9d8ee" x="73.136732" y="54.143136" style="fill: #222222"/>
     <use xlink:href="#m5977f9d8ee" x="77.675146" y="50.17284" style="fill: #222222"/>
     <use xlink:href="#m5977f9d8ee" x="82.155208" y="43.917624" style="fill: #222222"/>
     <use xlink:href="#m5977f9d8ee" x="86.596949" y="32.126328" style="fill: #222222"/>
     <use xlink:href="#m5977f9d8ee" x="91.14433" y="33.792696" style="fill: #222222"/>
     <use xlink:href="#m5977f9d8ee" x="95.615113" y="6.601752" style="fill: #222222"/>
     <use xlink:href="#m5977f9d8ee" x="95.622853" y="-1" style="fill: #222222"/>
    </g>
   </g>
   <g id="line2d_24">
    <path d="M 33.224897 57.418848 
L 37.645805 56.620512 
L 41.946487 56.123928 
L 46.490744 56.216592 
L 50.853747 55.20204 
L 54.998379 54.662688 
L 59.023989 54.440136 
L 64.055399 53.033544 
L 68.670455 49.484592 
L 73.156049 45.11592 
L 77.620809 47.862576 
L 82.133973 28.078416 
L 83.999576 -1 
" clip-path="url(#p81a1eb4145)" style="fill: none; stroke: #2878b5; stroke-width: 1.1; stroke-linecap: square"/>
    <defs>
     <path id="md0a9c3f533" d="M 0 0.8 
C 0.212162 0.8 0.415664 0.715707 0.565685 0.565685 
C 0.715707 0.415664 0.8 0.212162 0.8 0 
C 0.8 -0.212162 0.715707 -0.415664 0.565685 -0.565685 
C 0.415664 -0.715707 0.212162 -0.8 0 -0.8 
C -0.212162 -0.8 -0.415664 -0.715707 -0.565685 -0.565685 
C -0.715707 -0.415664 -0.8 -0.212162 -0.8 0 
C -0.8 0.212162 -0.715707 0.415664 -0.565685 0.565685 
C -0.415664 0.715707 -0.212162 0.8 0 0.8 
z
"/>
    </defs>
    <g clip-path="url(#p81a1eb4145)">
     <use xlink:href="#md0a9c3f533" x="33.224897" y="57.418848" style="fill: #2878b5"/>
     <use xlink:href="#md0a9c3f533" x="37.645805" y="56.620512" style="fill: #2878b5"/>
     <use xlink:href="#md0a9c3f533" x="41.946487" y="56.123928" style="fill: #2878b5"/>
     <use xlink:href="#md0a9c3f533" x="46.490744" y="56.216592" style="fill: #2878b5"/>
     <use xlink:href="#md0a9c3f533" x="50.853747" y="55.20204" style="fill: #2878b5"/>
     <use xlink:href="#md0a9c3f533" x="54.998379" y="54.662688" style="fill: #2878b5"/>
     <use xlink:href="#md0a9c3f533" x="59.023989" y="54.440136" style="fill: #2878b5"/>
     <use xlink:href="#md0a9c3f533" x="64.055399" y="53.033544" style="fill: #2878b5"/>
     <use xlink:href="#md0a9c3f533" x="68.670455" y="49.484592" style="fill: #2878b5"/>
     <use xlink:href="#md0a9c3f533" x="73.156049" y="45.11592" style="fill: #2878b5"/>
     <use xlink:href="#md0a9c3f533" x="77.620809" y="47.862576" style="fill: #2878b5"/>
     <use xlink:href="#md0a9c3f533" x="82.133973" y="28.078416" style="fill: #2878b5"/>
     <use xlink:href="#md0a9c3f533" x="83.999576" y="-1" style="fill: #2878b5"/>
    </g>
   </g>
   <g id="line2d_25">
    <path d="M 33.224897 57.437856 
L 37.666148 55.666944 
L 41.928955 56.414592 
L 46.456215 55.008792 
L 50.920307 53.842968 
L 55.007882 55.62576 
L 59.035008 54.185112 
L 64.144487 52.89336 
L 68.668938 49.048992 
L 73.181611 45.491328 
L 77.612735 48.396384 
L 82.160071 31.72716 
L 86.558584 12.883104 
L 86.567134 -1 
" clip-path="url(#p81a1eb4145)" style="fill: none; stroke: #d36b23; stroke-width: 1.1; stroke-linecap: square"/>
    <defs>
     <path id="mf2ee778c64" d="M 0 0.8 
C 0.212162 0.8 0.415664 0.715707 0.565685 0.565685 
C 0.715707 0.415664 0.8 0.212162 0.8 0 
C 0.8 -0.212162 0.715707 -0.415664 0.565685 -0.565685 
C 0.415664 -0.715707 0.212162 -0.8 0 -0.8 
C -0.212162 -0.8 -0.415664 -0.715707 -0.565685 -0.565685 
C -0.715707 -0.415664 -0.8 -0.212162 -0.8 0 
C -0.8 0.212162 -0.715707 0.415664 -0.565685 0.565685 
C -0.415664 0.715707 -0.212162 0.8 0 0.8 
z
"/>
    </defs>
    <g clip-path="url(#p81a1eb4145)">
     <use xlink:href="#mf2ee778c64" x="33.224897" y="57.437856" style="fill: #d36b23"/>
     <use xlink:href="#mf2ee778c64" x="37.666148" y="55.666944" style="fill: #d36b23"/>
     <use xlink:href="#mf2ee778c64" x="41.928955" y="56.414592" style="fill: #d36b23"/>
     <use xlink:href="#mf2ee778c64" x="46.456215" y="55.008792" style="fill: #d36b23"/>
     <use xlink:href="#mf2ee778c64" x="50.920307" y="53.842968" style="fill: #d36b23"/>
     <use xlink:href="#mf2ee778c64" x="55.007882" y="55.62576" style="fill: #d36b23"/>
     <use xlink:href="#mf2ee778c64" x="59.035008" y="54.185112" style="fill: #d36b23"/>
     <use xlink:href="#mf2ee778c64" x="64.144487" y="52.89336" style="fill: #d36b23"/>
     <use xlink:href="#mf2ee778c64" x="68.668938" y="49.048992" style="fill: #d36b23"/>
     <use xlink:href="#mf2ee778c64" x="73.181611" y="45.491328" style="fill: #d36b23"/>
     <use xlink:href="#mf2ee778c64" x="77.612735" y="48.396384" style="fill: #d36b23"/>
     <use xlink:href="#mf2ee778c64" x="82.160071" y="31.72716" style="fill: #d36b23"/>
     <use xlink:href="#mf2ee778c64" x="86.558584" y="12.883104" style="fill: #d36b23"/>
     <use xlink:href="#mf2ee778c64" x="86.567134" y="-1" style="fill: #d36b23"/>
    </g>
   </g>
   <g id="line2d_26">
    <path d="M 33.225254 57.298464 
L 37.665657 56.551608 
L 41.948583 56.222928 
L 46.463844 54.396576 
L 50.858967 54.321336 
L 54.996506 54.02592 
L 59.041075 53.086608 
L 64.213233 48.892968 
L 68.667912 47.843568 
L 73.126471 41.974848 
L 77.58347 39.632112 
L 80.650232 -1 
" clip-path="url(#p81a1eb4145)" style="fill: none; stroke: #33945b; stroke-width: 1.1; stroke-linecap: square"/>
    <defs>
     <path id="m1ded07bfa5" d="M 0 0.8 
C 0.212162 0.8 0.415664 0.715707 0.565685 0.565685 
C 0.715707 0.415664 0.8 0.212162 0.8 0 
C 0.8 -0.212162 0.715707 -0.415664 0.565685 -0.565685 
C 0.415664 -0.715707 0.212162 -0.8 0 -0.8 
C -0.212162 -0.8 -0.415664 -0.715707 -0.565685 -0.565685 
C -0.715707 -0.415664 -0.8 -0.212162 -0.8 0 
C -0.8 0.212162 -0.715707 0.415664 -0.565685 0.565685 
C -0.415664 0.715707 -0.212162 0.8 0 0.8 
z
"/>
    </defs>
    <g clip-path="url(#p81a1eb4145)">
     <use xlink:href="#m1ded07bfa5" x="33.225254" y="57.298464" style="fill: #33945b"/>
     <use xlink:href="#m1ded07bfa5" x="37.665657" y="56.551608" style="fill: #33945b"/>
     <use xlink:href="#m1ded07bfa5" x="41.948583" y="56.222928" style="fill: #33945b"/>
     <use xlink:href="#m1ded07bfa5" x="46.463844" y="54.396576" style="fill: #33945b"/>
     <use xlink:href="#m1ded07bfa5" x="50.858967" y="54.321336" style="fill: #33945b"/>
     <use xlink:href="#m1ded07bfa5" x="54.996506" y="54.02592" style="fill: #33945b"/>
     <use xlink:href="#m1ded07bfa5" x="59.041075" y="53.086608" style="fill: #33945b"/>
     <use xlink:href="#m1ded07bfa5" x="64.213233" y="48.892968" style="fill: #33945b"/>
     <use xlink:href="#m1ded07bfa5" x="68.667912" y="47.843568" style="fill: #33945b"/>
     <use xlink:href="#m1ded07bfa5" x="73.126471" y="41.974848" style="fill: #33945b"/>
     <use xlink:href="#m1ded07bfa5" x="77.58347" y="39.632112" style="fill: #33945b"/>
     <use xlink:href="#m1ded07bfa5" x="80.650232" y="-1" style="fill: #33945b"/>
    </g>
   </g>
  </g>
  <g id="axes_2">
   <g id="patch_5">
    <path d="M 151.857746 59.76 
L 236.1636 59.76 
L 236.1636 12.24 
L 151.857746 12.24 
z
" style="fill: #ffffff"/>
   </g>
   <g id="matplotlib.axis_3">
    <g id="xtick_5">
     <g id="line2d_27">
      <path d="M 151.857746 59.76 
L 151.857746 12.24 
" clip-path="url(#p1265bb459b)" style="fill: none; stroke: #b0b0b0; stroke-opacity: 0.35; stroke-width: 0.3; stroke-linecap: square"/>
     </g>
     <g id="line2d_28">
      <g>
       <use xlink:href="#m22cdb99114" x="151.857746" y="59.76" style="stroke: #000000; stroke-width: 0.6"/>
      </g>
     </g>
     <g id="text_10">
      <text style="font-size: 8px; font-family: 'DejaVu Sans', 'Bitstream Vera Sans', 'Computer Modern Sans Serif', 'Lucida Grande', 'Verdana', 'Geneva', 'Lucid', 'Arial', 'Helvetica', 'Avant Garde', sans-serif; text-anchor: middle" x="151.857746" y="69.33875" transform="rotate(-0 151.857746 69.33875)">0</text>
     </g>
    </g>
    <g id="xtick_6">
     <g id="line2d_29">
      <path d="M 174.16326 59.76 
L 174.16326 12.24 
" clip-path="url(#p1265bb459b)" style="fill: none; stroke: #b0b0b0; stroke-opacity: 0.35; stroke-width: 0.3; stroke-linecap: square"/>
     </g>
     <g id="line2d_30">
      <g>
       <use xlink:href="#m22cdb99114" x="174.16326" y="59.76" style="stroke: #000000; stroke-width: 0.6"/>
      </g>
     </g>
     <g id="text_11">
      <text style="font-size: 8px; font-family: 'DejaVu Sans', 'Bitstream Vera Sans', 'Computer Modern Sans Serif', 'Lucida Grande', 'Verdana', 'Geneva', 'Lucid', 'Arial', 'Helvetica', 'Avant Garde', sans-serif; text-anchor: middle" x="174.16326" y="69.33875" transform="rotate(-0 174.16326 69.33875)">5</text>
     </g>
    </g>
    <g id="xtick_7">
     <g id="line2d_31">
      <path d="M 196.468773 59.76 
L 196.468773 12.24 
" clip-path="url(#p1265bb459b)" style="fill: none; stroke: #b0b0b0; stroke-opacity: 0.35; stroke-width: 0.3; stroke-linecap: square"/>
     </g>
     <g id="line2d_32">
      <g>
       <use xlink:href="#m22cdb99114" x="196.468773" y="59.76" style="stroke: #000000; stroke-width: 0.6"/>
      </g>
     </g>
     <g id="text_12">
      <text style="font-size: 8px; font-family: 'DejaVu Sans', 'Bitstream Vera Sans', 'Computer Modern Sans Serif', 'Lucida Grande', 'Verdana', 'Geneva', 'Lucid', 'Arial', 'Helvetica', 'Avant Garde', sans-serif; text-anchor: middle" x="196.468773" y="69.33875" transform="rotate(-0 196.468773 69.33875)">10</text>
     </g>
    </g>
    <g id="xtick_8">
     <g id="line2d_33">
      <path d="M 218.774286 59.76 
L 218.774286 12.24 
" clip-path="url(#p1265bb459b)" style="fill: none; stroke: #b0b0b0; stroke-opacity: 0.35; stroke-width: 0.3; stroke-linecap: square"/>
     </g>
     <g id="line2d_34">
      <g>
       <use xlink:href="#m22cdb99114" x="218.774286" y="59.76" style="stroke: #000000; stroke-width: 0.6"/>
      </g>
     </g>
     <g id="text_13">
      <text style="font-size: 8px; font-family: 'DejaVu Sans', 'Bitstream Vera Sans', 'Computer Modern Sans Serif', 'Lucida Grande', 'Verdana', 'Geneva', 'Lucid', 'Arial', 'Helvetica', 'Avant Garde', sans-serif; text-anchor: middle" x="218.774286" y="69.33875" transform="rotate(-0 218.774286 69.33875)">15</text>
     </g>
    </g>
   </g>
   <g id="matplotlib.axis_4">
    <g id="ytick_5">
     <g id="line2d_35">
      <path d="M 151.857746 59.76 
L 236.1636 59.76 
" clip-path="url(#p1265bb459b)" style="fill: none; stroke: #b0b0b0; stroke-opacity: 0.35; stroke-width: 0.3; stroke-linecap: square"/>
     </g>
     <g id="line2d_36">
      <g>
       <use xlink:href="#m10795bc94c" x="151.857746" y="59.76" style="stroke: #000000; stroke-width: 0.6"/>
      </g>
     </g>
     <g id="text_14">
      <text style="font-size: 8px; font-family: 'DejaVu Sans', 'Bitstream Vera Sans', 'Computer Modern Sans Serif', 'Lucida Grande', 'Verdana', 'Geneva', 'Lucid', 'Arial', 'Helvetica', 'Avant Garde', sans-serif; text-anchor: end" x="148.357746" y="62.799375" transform="rotate(-0 148.357746 62.799375)">0</text>
     </g>
    </g>
    <g id="ytick_6">
     <g id="line2d_37">
      <path d="M 151.857746 47.88 
L 236.1636 47.88 
" clip-path="url(#p1265bb459b)" style="fill: none; stroke: #b0b0b0; stroke-opacity: 0.35; stroke-width: 0.3; stroke-linecap: square"/>
     </g>
     <g id="line2d_38">
      <g>
       <use xlink:href="#m10795bc94c" x="151.857746" y="47.88" style="stroke: #000000; stroke-width: 0.6"/>
      </g>
     </g>
     <g id="text_15">
      <text style="font-size: 8px; font-family: 'DejaVu Sans', 'Bitstream Vera Sans', 'Computer Modern Sans Serif', 'Lucida Grande', 'Verdana', 'Geneva', 'Lucid', 'Arial', 'Helvetica', 'Avant Garde', sans-serif; text-anchor: end" x="148.357746" y="50.919375" transform="rotate(-0 148.357746 50.919375)">50</text>
     </g>
    </g>
    <g id="ytick_7">
     <g id="line2d_39">
      <path d="M 151.857746 36 
L 236.1636 36 
" clip-path="url(#p1265bb459b)" style="fill: none; stroke: #b0b0b0; stroke-opacity: 0.35; stroke-width: 0.3; stroke-linecap: square"/>
     </g>
     <g id="line2d_40">
      <g>
       <use xlink:href="#m10795bc94c" x="151.857746" y="36" style="stroke: #000000; stroke-width: 0.6"/>
      </g>
     </g>
     <g id="text_16">
      <text style="font-size: 8px; font-family: 'DejaVu Sans', 'Bitstream Vera Sans', 'Computer Modern Sans Serif', 'Lucida Grande', 'Verdana', 'Geneva', 'Lucid', 'Arial', 'Helvetica', 'Avant Garde', sans-serif; text-anchor: end" x="148.357746" y="39.039375" transform="rotate(-0 148.357746 39.039375)">100</text>
     </g>
    </g>
    <g id="ytick_8">
     <g id="line2d_41">
      <path d="M 151.857746 24.12 
L 236.1636 24.12 
" clip-path="url(#p1265bb459b)" style="fill: none; stroke: #b0b0b0; stroke-opacity: 0.35; stroke-width: 0.3; stroke-linecap: square"/>
     </g>
     <g id="line2d_42">
      <g>
       <use xlink:href="#m10795bc94c" x="151.857746" y="24.12" style="stroke: #000000; stroke-width: 0.6"/>
      </g>
     </g>
     <g id="text_17">
      <text style="font-size: 8px; font-family: 'DejaVu Sans', 'Bitstream Vera Sans', 'Computer Modern Sans Serif', 'Lucida Grande', 'Verdana', 'Geneva', 'Lucid', 'Arial', 'Helvetica', 'Avant Garde', sans-serif; text-anchor: end" x="148.357746" y="27.159375" transform="rotate(-0 148.357746 27.159375)">150</text>
     </g>
    </g>
    <g id="ytick_9">
     <g id="line2d_43">
      <path d="M 151.857746 12.24 
L 236.1636 12.24 
" clip-path="url(#p1265bb459b)" style="fill: none; stroke: #b0b0b0; stroke-opacity: 0.35; stroke-width: 0.3; stroke-linecap: square"/>
     </g>
     <g id="line2d_44">
      <g>
       <use xlink:href="#m10795bc94c" x="151.857746" y="12.24" style="stroke: #000000; stroke-width: 0.6"/>
      </g>
     </g>
     <g id="text_18">
      <text style="font-size: 8px; font-family: 'DejaVu Sans', 'Bitstream Vera Sans', 'Computer Modern Sans Serif', 'Lucida Grande', 'Verdana', 'Geneva', 'Lucid', 'Arial', 'Helvetica', 'Avant Garde', sans-serif; text-anchor: end" x="148.357746" y="15.279375" transform="rotate(-0 148.357746 15.279375)">200</text>
     </g>
    </g>
    <g id="text_19">
     <text style="font-size: 8px; font-family: 'DejaVu Sans', 'Bitstream Vera Sans', 'Computer Modern Sans Serif', 'Lucida Grande', 'Verdana', 'Geneva', 'Lucid', 'Arial', 'Helvetica', 'Avant Garde', sans-serif; text-anchor: middle" x="129.923996" y="36" transform="rotate(-90 129.923996 36)">p99 (ms)</text>
    </g>
   </g>
   <g id="line2d_45">
    <path clip-path="url(#p1265bb459b)" style="fill: none; stroke-dasharray: 0.8,1.32; stroke-dashoffset: 0; stroke: #7a7a7a; stroke-opacity: 0.3; stroke-width: 0.8"/>
    <g clip-path="url(#p1265bb459b)"/>
   </g>
   <g id="line2d_46">
    <path clip-path="url(#p1265bb459b)" style="fill: none; stroke: #222222; stroke-opacity: 0.3; stroke-width: 0.8; stroke-linecap: square"/>
    <g clip-path="url(#p1265bb459b)"/>
   </g>
   <g id="line2d_47">
    <path clip-path="url(#p1265bb459b)" style="fill: none; stroke: #2878b5; stroke-opacity: 0.3; stroke-width: 0.8; stroke-linecap: square"/>
    <g clip-path="url(#p1265bb459b)"/>
   </g>
   <g id="line2d_48">
    <path clip-path="url(#p1265bb459b)" style="fill: none; stroke: #d36b23; stroke-opacity: 0.3; stroke-width: 0.8; stroke-linecap: square"/>
    <g clip-path="url(#p1265bb459b)"/>
   </g>
   <g id="line2d_49">
    <path clip-path="url(#p1265bb459b)" style="fill: none; stroke: #33945b; stroke-opacity: 0.3; stroke-width: 0.8; stroke-linecap: square"/>
    <g clip-path="url(#p1265bb459b)"/>
   </g>
   <g id="patch_6">
    <path d="M 151.857746 59.76 
L 151.857746 12.24 
" style="fill: none; stroke: #000000; stroke-width: 0.6; stroke-linejoin: miter; stroke-linecap: square"/>
   </g>
   <g id="patch_7">
    <path d="M 151.857746 59.76 
L 236.1636 59.76 
" style="fill: none; stroke: #000000; stroke-width: 0.6; stroke-linejoin: miter; stroke-linecap: square"/>
   </g>
   <g id="line2d_50">
    <path d="M 154.086513 58.769208 
L 156.311533 58.795344 
L 158.542129 58.56012 
L 160.738776 58.3344 
L 162.971781 57.661992 
L 165.022326 57.476664 
L 167.27215 58.52448 
L 169.575729 58.004136 
L 171.736643 58.14432 
L 173.98428 57.771288 
L 176.059897 57.987504 
L 178.110845 58.103928 
L 179.979601 57.997008 
L 182.120618 57.759408 
L 184.945968 56.773368 
L 187.235584 57.013344 
L 189.520873 56.652192 
L 191.795143 56.585664 
L 193.962079 55.3644 
L 196.214802 55.85148 
L 198.463867 56.022552 
L 200.694285 55.343016 
L 202.873979 56.288664 
L 205.23881 56.52864 
L 207.526731 51.192144 
L 209.693533 52.498944 
L 211.970658 51.282432 
L 214.209641 51.144624 
L 216.505726 47.259864 
L 218.781602 48.18888 
L 220.9919 46.523304 
L 223.171238 47.792088 
L 225.504752 44.159184 
L 227.631627 44.401536 
L 229.943192 43.382232 
L 232.172137 39.946536 
L 232.249777 -1 
" clip-path="url(#p1265bb459b)" style="fill: none; stroke-dasharray: 1.1,1.815; stroke-dashoffset: 0; stroke: #7a7a7a; stroke-width: 1.1"/>
    <g clip-path="url(#p1265bb459b)">
     <use xlink:href="#me60193a516" x="154.086513" y="58.769208" style="fill: #7a7a7a"/>
     <use xlink:href="#me60193a516" x="156.311533" y="58.795344" style="fill: #7a7a7a"/>
     <use xlink:href="#me60193a516" x="158.542129" y="58.56012" style="fill: #7a7a7a"/>
     <use xlink:href="#me60193a516" x="160.738776" y="58.3344" style="fill: #7a7a7a"/>
     <use xlink:href="#me60193a516" x="162.971781" y="57.661992" style="fill: #7a7a7a"/>
     <use xlink:href="#me60193a516" x="165.022326" y="57.476664" style="fill: #7a7a7a"/>
     <use xlink:href="#me60193a516" x="167.27215" y="58.52448" style="fill: #7a7a7a"/>
     <use xlink:href="#me60193a516" x="169.575729" y="58.004136" style="fill: #7a7a7a"/>
     <use xlink:href="#me60193a516" x="171.736643" y="58.14432" style="fill: #7a7a7a"/>
     <use xlink:href="#me60193a516" x="173.98428" y="57.771288" style="fill: #7a7a7a"/>
     <use xlink:href="#me60193a516" x="176.059897" y="57.987504" style="fill: #7a7a7a"/>
     <use xlink:href="#me60193a516" x="178.110845" y="58.103928" style="fill: #7a7a7a"/>
     <use xlink:href="#me60193a516" x="179.979601" y="57.997008" style="fill: #7a7a7a"/>
     <use xlink:href="#me60193a516" x="182.120618" y="57.759408" style="fill: #7a7a7a"/>
     <use xlink:href="#me60193a516" x="184.945968" y="56.773368" style="fill: #7a7a7a"/>
     <use xlink:href="#me60193a516" x="187.235584" y="57.013344" style="fill: #7a7a7a"/>
     <use xlink:href="#me60193a516" x="189.520873" y="56.652192" style="fill: #7a7a7a"/>
     <use xlink:href="#me60193a516" x="191.795143" y="56.585664" style="fill: #7a7a7a"/>
     <use xlink:href="#me60193a516" x="193.962079" y="55.3644" style="fill: #7a7a7a"/>
     <use xlink:href="#me60193a516" x="196.214802" y="55.85148" style="fill: #7a7a7a"/>
     <use xlink:href="#me60193a516" x="198.463867" y="56.022552" style="fill: #7a7a7a"/>
     <use xlink:href="#me60193a516" x="200.694285" y="55.343016" style="fill: #7a7a7a"/>
     <use xlink:href="#me60193a516" x="202.873979" y="56.288664" style="fill: #7a7a7a"/>
     <use xlink:href="#me60193a516" x="205.23881" y="56.52864" style="fill: #7a7a7a"/>
     <use xlink:href="#me60193a516" x="207.526731" y="51.192144" style="fill: #7a7a7a"/>
     <use xlink:href="#me60193a516" x="209.693533" y="52.498944" style="fill: #7a7a7a"/>
     <use xlink:href="#me60193a516" x="211.970658" y="51.282432" style="fill: #7a7a7a"/>
     <use xlink:href="#me60193a516" x="214.209641" y="51.144624" style="fill: #7a7a7a"/>
     <use xlink:href="#me60193a516" x="216.505726" y="47.259864" style="fill: #7a7a7a"/>
     <use xlink:href="#me60193a516" x="218.781602" y="48.18888" style="fill: #7a7a7a"/>
     <use xlink:href="#me60193a516" x="220.9919" y="46.523304" style="fill: #7a7a7a"/>
     <use xlink:href="#me60193a516" x="223.171238" y="47.792088" style="fill: #7a7a7a"/>
     <use xlink:href="#me60193a516" x="225.504752" y="44.159184" style="fill: #7a7a7a"/>
     <use xlink:href="#me60193a516" x="227.631627" y="44.401536" style="fill: #7a7a7a"/>
     <use xlink:href="#me60193a516" x="229.943192" y="43.382232" style="fill: #7a7a7a"/>
     <use xlink:href="#me60193a516" x="232.172137" y="39.946536" style="fill: #7a7a7a"/>
     <use xlink:href="#me60193a516" x="232.249777" y="-1" style="fill: #7a7a7a"/>
    </g>
   </g>
   <g id="line2d_51">
    <path d="M 156.281956 58.557744 
L 160.752159 57.821184 
L 165.019471 57.41964 
L 169.587774 57.369744 
L 173.992533 57.861576 
L 178.089476 57.029976 
L 182.135339 56.602296 
L 187.290545 54.551808 
L 191.778726 54.062352 
L 196.223278 54.879696 
L 200.761692 51.548544 
L 205.241754 47.777832 
L 209.683496 41.754672 
L 214.230876 43.018704 
L 218.701659 16.877952 
L 218.744697 -1 
" clip-path="url(#p1265bb459b)" style="fill: none; stroke: #222222; stroke-width: 1.1; stroke-linecap: square"/>
    <g clip-path="url(#p1265bb459b)">
     <use xlink:href="#m5977f9d8ee" x="156.281956" y="58.557744" style="fill: #222222"/>
     <use xlink:href="#m5977f9d8ee" x="160.752159" y="57.821184" style="fill: #222222"/>
     <use xlink:href="#m5977f9d8ee" x="165.019471" y="57.41964" style="fill: #222222"/>
     <use xlink:href="#m5977f9d8ee" x="169.587774" y="57.369744" style="fill: #222222"/>
     <use xlink:href="#m5977f9d8ee" x="173.992533" y="57.861576" style="fill: #222222"/>
     <use xlink:href="#m5977f9d8ee" x="178.089476" y="57.029976" style="fill: #222222"/>
     <use xlink:href="#m5977f9d8ee" x="182.135339" y="56.602296" style="fill: #222222"/>
     <use xlink:href="#m5977f9d8ee" x="187.290545" y="54.551808" style="fill: #222222"/>
     <use xlink:href="#m5977f9d8ee" x="191.778726" y="54.062352" style="fill: #222222"/>
     <use xlink:href="#m5977f9d8ee" x="196.223278" y="54.879696" style="fill: #222222"/>
     <use xlink:href="#m5977f9d8ee" x="200.761692" y="51.548544" style="fill: #222222"/>
     <use xlink:href="#m5977f9d8ee" x="205.241754" y="47.777832" style="fill: #222222"/>
     <use xlink:href="#m5977f9d8ee" x="209.683496" y="41.754672" style="fill: #222222"/>
     <use xlink:href="#m5977f9d8ee" x="214.230876" y="43.018704" style="fill: #222222"/>
     <use xlink:href="#m5977f9d8ee" x="218.701659" y="16.877952" style="fill: #222222"/>
     <use xlink:href="#m5977f9d8ee" x="218.744697" y="-1" style="fill: #222222"/>
    </g>
   </g>
   <g id="line2d_52">
    <path d="M 156.311444 58.486464 
L 160.732352 58.137192 
L 165.033033 57.260448 
L 169.577291 57.37212 
L 173.940294 56.16036 
L 178.084926 55.193328 
L 182.110536 54.768024 
L 187.141946 54.202536 
L 191.757001 50.44608 
L 196.242595 49.405392 
L 200.707356 51.061464 
L 205.220519 40.675968 
L 208.819524 -1 
" clip-path="url(#p1265bb459b)" style="fill: none; stroke: #2878b5; stroke-width: 1.1; stroke-linecap: square"/>
    <g clip-path="url(#p1265bb459b)">
     <use xlink:href="#md0a9c3f533" x="156.311444" y="58.486464" style="fill: #2878b5"/>
     <use xlink:href="#md0a9c3f533" x="160.732352" y="58.137192" style="fill: #2878b5"/>
     <use xlink:href="#md0a9c3f533" x="165.033033" y="57.260448" style="fill: #2878b5"/>
     <use xlink:href="#md0a9c3f533" x="169.577291" y="57.37212" style="fill: #2878b5"/>
     <use xlink:href="#md0a9c3f533" x="173.940294" y="56.16036" style="fill: #2878b5"/>
     <use xlink:href="#md0a9c3f533" x="178.084926" y="55.193328" style="fill: #2878b5"/>
     <use xlink:href="#md0a9c3f533" x="182.110536" y="54.768024" style="fill: #2878b5"/>
     <use xlink:href="#md0a9c3f533" x="187.141946" y="54.202536" style="fill: #2878b5"/>
     <use xlink:href="#md0a9c3f533" x="191.757001" y="50.44608" style="fill: #2878b5"/>
     <use xlink:href="#md0a9c3f533" x="196.242595" y="49.405392" style="fill: #2878b5"/>
     <use xlink:href="#md0a9c3f533" x="200.707356" y="51.061464" style="fill: #2878b5"/>
     <use xlink:href="#md0a9c3f533" x="205.220519" y="40.675968" style="fill: #2878b5"/>
     <use xlink:href="#md0a9c3f533" x="208.819524" y="-1" style="fill: #2878b5"/>
    </g>
   </g>
   <g id="line2d_53">
    <path d="M 156.311444 58.612392 
L 160.752694 57.398256 
L 165.015501 57.804552 
L 169.542762 56.405088 
L 174.006853 54.79416 
L 178.094428 56.526264 
L 182.121554 53.886528 
L 187.231034 53.646552 
L 191.755484 50.538744 
L 196.268157 49.015728 
L 200.699281 51.458256 
L 205.246617 42.517368 
L 209.64513 32.236416 
L 209.687835 -1 
" clip-path="url(#p1265bb459b)" style="fill: none; stroke: #d36b23; stroke-width: 1.1; stroke-linecap: square"/>
    <g clip-path="url(#p1265bb459b)">
     <use xlink:href="#mf2ee778c64" x="156.311444" y="58.612392" style="fill: #d36b23"/>
     <use xlink:href="#mf2ee778c64" x="160.752694" y="57.398256" style="fill: #d36b23"/>
     <use xlink:href="#mf2ee778c64" x="165.015501" y="57.804552" style="fill: #d36b23"/>
     <use xlink:href="#mf2ee778c64" x="169.542762" y="56.405088" style="fill: #d36b23"/>
     <use xlink:href="#mf2ee778c64" x="174.006853" y="54.79416" style="fill: #d36b23"/>
     <use xlink:href="#mf2ee778c64" x="178.094428" y="56.526264" style="fill: #d36b23"/>
     <use xlink:href="#mf2ee778c64" x="182.121554" y="53.886528" style="fill: #d36b23"/>
     <use xlink:href="#mf2ee778c64" x="187.231034" y="53.646552" style="fill: #d36b23"/>
     <use xlink:href="#mf2ee778c64" x="191.755484" y="50.538744" style="fill: #d36b23"/>
     <use xlink:href="#mf2ee778c64" x="196.268157" y="49.015728" style="fill: #d36b23"/>
     <use xlink:href="#mf2ee778c64" x="200.699281" y="51.458256" style="fill: #d36b23"/>
     <use xlink:href="#mf2ee778c64" x="205.246617" y="42.517368" style="fill: #d36b23"/>
     <use xlink:href="#mf2ee778c64" x="209.64513" y="32.236416" style="fill: #d36b23"/>
     <use xlink:href="#mf2ee778c64" x="209.687835" y="-1" style="fill: #d36b23"/>
    </g>
   </g>
   <g id="line2d_54">
    <path d="M 156.3118 58.355784 
L 160.752204 58.016016 
L 165.03513 57.476664 
L 169.55039 55.445184 
L 173.945513 55.597248 
L 178.083052 55.053144 
L 182.127622 52.351632 
L 187.299779 49.778424 
L 191.754458 48.393216 
L 196.213018 46.47816 
L 200.670016 47.1078 
L 204.907749 -1 
" clip-path="url(#p1265bb459b)" style="fill: none; stroke: #33945b; stroke-width: 1.1; stroke-linecap: square"/>
    <g clip-path="url(#p1265bb459b)">
     <use xlink:href="#m1ded07bfa5" x="156.3118" y="58.355784" style="fill: #33945b"/>
     <use xlink:href="#m1ded07bfa5" x="160.752204" y="58.016016" style="fill: #33945b"/>
     <use xlink:href="#m1ded07bfa5" x="165.03513" y="57.476664" style="fill: #33945b"/>
     <use xlink:href="#m1ded07bfa5" x="169.55039" y="55.445184" style="fill: #33945b"/>
     <use xlink:href="#m1ded07bfa5" x="173.945513" y="55.597248" style="fill: #33945b"/>
     <use xlink:href="#m1ded07bfa5" x="178.083052" y="55.053144" style="fill: #33945b"/>
     <use xlink:href="#m1ded07bfa5" x="182.127622" y="52.351632" style="fill: #33945b"/>
     <use xlink:href="#m1ded07bfa5" x="187.299779" y="49.778424" style="fill: #33945b"/>
     <use xlink:href="#m1ded07bfa5" x="191.754458" y="48.393216" style="fill: #33945b"/>
     <use xlink:href="#m1ded07bfa5" x="196.213018" y="46.47816" style="fill: #33945b"/>
     <use xlink:href="#m1ded07bfa5" x="200.670016" y="47.1078" style="fill: #33945b"/>
     <use xlink:href="#m1ded07bfa5" x="204.907749" y="-1" style="fill: #33945b"/>
    </g>
   </g>
  </g>
  <g id="text_20">
   <text style="font-size: 8px; font-family: 'DejaVu Sans', 'Bitstream Vera Sans', 'Computer Modern Sans Serif', 'Lucida Grande', 'Verdana', 'Geneva', 'Lucid', 'Arial', 'Helvetica', 'Avant Garde', sans-serif; text-anchor: middle" x="119.88" y="81.73385" transform="rotate(-0 119.88 81.73385)">achieved (k req/s)</text>
  </g>
  <g id="legend_1">
   <g id="line2d_55">
    <path d="M 41.5479 4.07875 
L 46.3479 4.07875 
L 51.1479 4.07875 
" style="fill: none; stroke-dasharray: 1.2,1.98; stroke-dashoffset: 0; stroke: #7a7a7a; stroke-width: 1.2"/>
   </g>
   <g id="text_21">
    <text style="font-size: 8px; font-family: 'DejaVu Sans', 'Bitstream Vera Sans', 'Computer Modern Sans Serif', 'Lucida Grande', 'Verdana', 'Geneva', 'Lucid', 'Arial', 'Helvetica', 'Avant Garde', sans-serif; text-anchor: start" x="53.5479" y="6.87875" transform="rotate(-0 53.5479 6.87875)">None</text>
   </g>
   <g id="line2d_56">
    <path d="M 80.8204 4.07875 
L 85.6204 4.07875 
L 90.4204 4.07875 
" style="fill: none; stroke: #222222; stroke-width: 1.2; stroke-linecap: square"/>
   </g>
   <g id="text_22">
    <text style="font-size: 8px; font-family: 'DejaVu Sans', 'Bitstream Vera Sans', 'Computer Modern Sans Serif', 'Lucida Grande', 'Verdana', 'Geneva', 'Lucid', 'Arial', 'Helvetica', 'Avant Garde', sans-serif; text-anchor: start" x="92.8204" y="6.87875" transform="rotate(-0 92.8204 6.87875)">Vanilla</text>
   </g>
   <g id="line2d_57">
    <path d="M 125.6154 4.07875 
L 130.4154 4.07875 
L 135.2154 4.07875 
" style="fill: none; stroke: #2878b5; stroke-width: 1.2; stroke-linecap: square"/>
   </g>
   <g id="text_23">
    <text style="font-size: 8px; font-family: 'DejaVu Sans', 'Bitstream Vera Sans', 'Computer Modern Sans Serif', 'Lucida Grande', 'Verdana', 'Geneva', 'Lucid', 'Arial', 'Helvetica', 'Avant Garde', sans-serif; text-anchor: start" x="137.6154" y="6.87875" transform="rotate(-0 137.6154 6.87875)">PB</text>
   </g>
   <g id="line2d_58">
    <path d="M 154.3279 4.07875 
L 159.1279 4.07875 
L 163.9279 4.07875 
" style="fill: none; stroke: #d36b23; stroke-width: 1.2; stroke-linecap: square"/>
   </g>
   <g id="text_24">
    <text style="font-size: 8px; font-family: 'DejaVu Sans', 'Bitstream Vera Sans', 'Computer Modern Sans Serif', 'Lucida Grande', 'Verdana', 'Geneva', 'Lucid', 'Arial', 'Helvetica', 'Avant Garde', sans-serif; text-anchor: start" x="166.3279" y="6.87875" transform="rotate(-0 166.3279 6.87875)">CGPB</text>
   </g>
   <g id="line2d_59">
    <path d="M 194.8254 4.07875 
L 199.6254 4.07875 
L 204.4254 4.07875 
" style="fill: none; stroke: #33945b; stroke-width: 1.2; stroke-linecap: square"/>
   </g>
   <g id="text_25">
    <text style="font-size: 8px; font-family: 'DejaVu Sans', 'Bitstream Vera Sans', 'Computer Modern Sans Serif', 'Lucida Grande', 'Verdana', 'Geneva', 'Lucid', 'Arial', 'Helvetica', 'Avant Garde', sans-serif; text-anchor: start" x="206.8254" y="6.87875" transform="rotate(-0 206.8254 6.87875)">SB</text>
   </g>
  </g>
 </g>
 <defs>
  <clipPath id="p81a1eb4145">
   <rect x="28.7712" y="12.24" width="84.305854" height="47.52"/>
  </clipPath>
  <clipPath id="p1265bb459b">
   <rect x="151.857746" y="12.24" width="84.305854" height="47.52"/>
  </clipPath>
 </defs>
</svg>
